<svg width="39" height="39" viewBox="0 0 39 39" fill="none" xmlns="http://www.w3.org/2000/svg">
<g clip-path="url(#clip0_1_2400)">
<path fill-rule="evenodd" clip-rule="evenodd" d="M21.7856 13.7861C22.694 13.788 23.5647 14.1499 24.2069 14.7925C24.849 15.4351 25.2103 16.3061 25.2116 17.2146C25.2116 17.5176 25.332 17.8083 25.5463 18.0226C25.7606 18.237 26.0513 18.3574 26.3544 18.3574C26.6575 18.3574 26.9482 18.237 27.1625 18.0226C27.3768 17.8083 27.4972 17.5176 27.4972 17.2146C27.4985 16.3057 27.8601 15.4344 28.5028 14.7917C29.1455 14.149 30.0168 13.7874 30.9257 13.7861C31.08 13.7932 31.2342 13.7689 31.3788 13.7147C31.5235 13.6606 31.6557 13.5776 31.7674 13.4709C31.8791 13.3642 31.9681 13.236 32.0288 13.0939C32.0896 12.9519 32.1209 12.799 32.1209 12.6445C32.1209 12.49 32.0896 12.3371 32.0288 12.1951C31.9681 12.053 31.8791 11.9248 31.7674 11.8181C31.6557 11.7114 31.5235 11.6284 31.3788 11.5743C31.2342 11.5201 31.08 11.4958 30.9257 11.5029C30.0168 11.5016 29.1455 11.14 28.5028 10.4973C27.8601 9.85464 27.4985 8.98334 27.4972 8.07445C27.4972 7.77136 27.3768 7.48068 27.1625 7.26636C26.9482 7.05204 26.6575 6.93164 26.3544 6.93164C26.0513 6.93164 25.7606 7.05204 25.5463 7.26636C25.332 7.48068 25.2116 7.77136 25.2116 8.07445C25.2103 8.98293 24.849 9.85386 24.2069 10.4965C23.5647 11.1391 22.694 11.501 21.7856 11.5029C21.6312 11.4958 21.4771 11.5201 21.3324 11.5743C21.1877 11.6284 21.0555 11.7114 20.9438 11.8181C20.8321 11.9248 20.7432 12.053 20.6824 12.1951C20.6217 12.3371 20.5903 12.49 20.5903 12.6445C20.5903 12.799 20.6217 12.9519 20.6824 13.0939C20.7432 13.236 20.8321 13.3642 20.9438 13.4709C21.0555 13.5776 21.1877 13.6606 21.3324 13.7147C21.4771 13.7689 21.6312 13.7932 21.7856 13.7861ZM26.3568 11.4981C26.6831 11.9322 27.0686 12.3185 27.502 12.6457C27.0681 12.9714 26.6825 13.357 26.3568 13.7909C26.0311 13.357 25.6456 12.9714 25.2116 12.6457C25.6442 12.3183 26.0289 11.9321 26.3544 11.4981H26.3568Z" fill="#2C88E1"/>
<path fill-rule="evenodd" clip-rule="evenodd" d="M37.8573 20.643C36.9418 20.6408 36.0633 20.2812 35.409 19.6408C34.7547 19.0004 34.3762 18.1299 34.3543 17.2146C34.3543 16.9115 34.2339 16.6208 34.0196 16.4065C33.8053 16.1922 33.5146 16.0718 33.2115 16.0718C32.9084 16.0718 32.6177 16.1922 32.4034 16.4065C32.1891 16.6208 32.0687 16.9115 32.0687 17.2146C32.0684 17.6655 31.9791 18.112 31.8061 18.5284C31.6331 18.9449 31.3797 19.3231 31.0604 19.6416C30.7411 19.96 30.3621 20.2123 29.9452 20.3842C29.5283 20.556 29.0816 20.644 28.6306 20.643C28.3275 20.643 28.0368 20.7634 27.8225 20.9778C27.6082 21.1921 27.4878 21.4827 27.4878 21.7858C27.4878 22.0889 27.6082 22.3796 27.8225 22.5939C28.0368 22.8083 28.3275 22.9287 28.6306 22.9287C29.5397 22.9293 30.4114 23.2907 31.0542 23.9335C31.697 24.5763 32.0584 25.448 32.059 26.3571C32.059 26.6602 32.1794 26.9509 32.3938 27.1652C32.6081 27.3795 32.8988 27.4999 33.2019 27.4999C33.505 27.4999 33.7956 27.3795 34.01 27.1652C34.2243 26.9509 34.3447 26.6602 34.3447 26.3571C34.366 25.44 34.7456 24.5676 35.4021 23.9269C36.0587 23.2861 36.9399 22.9278 37.8573 22.9287C38.1604 22.9287 38.4511 22.8083 38.6654 22.5939C38.8797 22.3796 39.0001 22.0889 39.0001 21.7858C39.0001 21.4827 38.8797 21.1921 38.6654 20.9778C38.4511 20.7634 38.1604 20.643 37.8573 20.643ZM33.7889 22.3079C33.5851 22.5079 33.3953 22.7217 33.2211 22.9479C32.8936 22.5074 32.5047 22.116 32.0663 21.7858C32.5047 21.4556 32.8936 21.0643 33.2211 20.6238C33.5586 21.0636 33.9554 21.4547 34.4 21.7858C34.1848 21.9459 33.9806 22.1203 33.7889 22.3079Z" fill="#2C88E1"/>
<path fill-rule="evenodd" clip-rule="evenodd" d="M37.8572 36.7144H27.0642C25.8439 34.1977 25.2104 31.437 25.2117 28.6401V26.3569C25.211 25.4482 24.8499 24.5769 24.2076 23.9342C23.5653 23.2914 22.6943 22.9297 21.7856 22.9284C20.877 22.9278 20.0057 22.5667 19.3629 21.9244C18.7202 21.2821 18.3585 20.4111 18.3572 19.5024V3.42843C18.3693 2.97072 18.2896 2.51522 18.1229 2.0888C17.9561 1.66238 17.7056 1.27369 17.3861 0.945669C17.0667 0.617645 16.6848 0.356931 16.2629 0.178913C15.8411 0.000894807 15.3878 -0.0908203 14.9299 -0.0908203C14.4721 -0.0908203 14.0188 0.000894807 13.597 0.178913C13.1751 0.356931 12.7932 0.617645 12.4738 0.945669C12.1543 1.27369 11.9038 1.66238 11.737 2.0888C11.5703 2.51522 11.4906 2.97072 11.5027 3.42843V19.5024C11.5008 20.4109 11.1389 21.2815 10.4963 21.9237C9.85368 22.5659 8.98275 22.9272 8.07428 22.9284C7.16539 22.9297 6.29409 23.2913 5.65141 23.934C5.00873 24.5767 4.64711 25.448 4.64584 26.3569V28.6305C4.646 31.4032 5.19891 34.1481 6.27224 36.7047H1.14281C0.83972 36.7047 0.549041 36.8251 0.334722 37.0395C0.120403 37.2538 0 37.5445 0 37.8476C0 38.1507 0.120403 38.4413 0.334722 38.6556C0.549041 38.87 0.83972 38.9904 1.14281 38.9904H37.8572C38.1603 38.9904 38.451 38.87 38.6653 38.6556C38.8796 38.4413 39 38.1507 39 37.8476C39 37.5445 38.8796 37.2538 38.6653 37.0395C38.451 36.8251 38.1603 36.7047 37.8572 36.7047V36.7144ZM14.9287 2.28562C15.2318 2.28562 15.5225 2.40602 15.7368 2.62034C15.9512 2.83466 16.0716 3.12534 16.0716 3.42843V18.3572H13.7859V3.44046C13.7843 3.28938 13.8127 3.13948 13.8694 2.99943C13.9262 2.85939 14.0101 2.73198 14.1164 2.62458C14.2227 2.51719 14.3492 2.43193 14.4886 2.37375C14.6281 2.31556 14.7777 2.28561 14.9287 2.28562ZM6.93146 26.3569C6.93146 26.0538 7.05186 25.7631 7.26618 25.5488C7.4805 25.3345 7.77118 25.2141 8.07428 25.2141C9.39086 25.2122 10.6666 24.7566 11.6864 23.9239C12.7062 23.0912 13.4078 21.9324 13.6729 20.6428H16.187C16.4521 21.9324 17.1537 23.0912 18.1735 23.9239C19.1933 24.7566 20.469 25.2122 21.7856 25.2141C22.0883 25.2147 22.3784 25.3354 22.5922 25.5496C22.806 25.7639 22.926 26.0542 22.926 26.3569V27.4973H6.93146V26.3569ZM6.97717 29.7829H22.9597C23.0891 32.1677 23.6278 34.5124 24.5524 36.7144H21.3477C20.7721 35.5072 20.3254 34.2427 20.0149 32.9419C19.9221 32.6727 19.7321 32.4478 19.4822 32.3113C19.2323 32.1749 18.9405 32.1366 18.6638 32.204C18.3872 32.2714 18.1457 32.4397 17.9866 32.6759C17.8275 32.9121 17.7623 33.1991 17.8038 33.4808C18.07 34.5843 18.4215 35.6654 18.8552 36.7144H14.4933C13.9169 35.5073 13.4693 34.2428 13.158 32.9419C13.0814 32.6529 12.8947 32.4054 12.6378 32.2525C12.3809 32.0996 12.0743 32.0535 11.7838 32.124C11.4933 32.1945 11.2419 32.376 11.0837 32.6297C10.9255 32.8833 10.8729 33.1889 10.9373 33.4808C11.2057 34.5836 11.5572 35.6646 11.9887 36.7144H8.78402C7.7339 34.5444 7.12001 32.1894 6.97717 29.7829Z" fill="#2C88E1"/>
</g>
<defs>
<clipPath id="clip0_1_2400">
<rect width="39" height="39" fill="white"/>
</clipPath>
</defs>
</svg>
