<svg width="39" height="37" viewBox="0 0 39 37" fill="none" xmlns="http://www.w3.org/2000/svg">
<g clip-path="url(#clip0_79_2993)">
<path fill-rule="evenodd" clip-rule="evenodd" d="M25.2866 25.4959C25.2866 25.7234 25.2196 25.9459 25.094 26.1351C24.9684 26.3244 24.7899 26.4718 24.5811 26.5589C24.3723 26.646 24.1425 26.6688 23.9208 26.6244C23.6992 26.58 23.4955 26.4704 23.3357 26.3095C23.1759 26.1486 23.067 25.9435 23.0229 25.7203C22.9788 25.4971 23.0015 25.2658 23.088 25.0555C23.1745 24.8453 23.3209 24.6656 23.5089 24.5391C23.6968 24.4127 23.9178 24.3452 24.1438 24.3452C24.4469 24.3452 24.7376 24.4664 24.9519 24.6822C25.1662 24.898 25.2866 25.1907 25.2866 25.4959Z" fill="#2C88E1"/>
<path fill-rule="evenodd" clip-rule="evenodd" d="M29.8579 26.6468C29.8584 26.8744 29.7917 27.0971 29.6665 27.2867C29.5412 27.4762 29.3629 27.6241 29.1541 27.7115C28.9453 27.799 28.7154 27.8221 28.4936 27.778C28.2718 27.7339 28.0679 27.6245 27.9078 27.4637C27.7478 27.3028 27.6387 27.0978 27.5944 26.8746C27.5501 26.6513 27.5726 26.4198 27.659 26.2094C27.7455 25.999 27.8919 25.8192 28.0799 25.6926C28.2679 25.5661 28.4889 25.4985 28.7151 25.4985C29.0178 25.4985 29.3081 25.6194 29.5223 25.8347C29.7366 26.05 29.8573 26.342 29.8579 26.6468Z" fill="#2C88E1"/>
<path fill-rule="evenodd" clip-rule="evenodd" d="M34.14 20.6124C34.3333 19.5666 34.4308 18.5052 34.4312 17.4415C34.4441 13.8911 33.3566 10.4251 31.3203 7.5265C31.8962 7.11775 32.5837 6.89858 33.2883 6.89909C33.5914 6.89909 33.8821 6.77786 34.0964 6.56207C34.3107 6.34629 34.4312 6.05361 34.4312 5.74844C34.4312 5.44327 34.3107 5.1506 34.0964 4.93481C33.8821 4.71902 33.5914 4.59779 33.2883 4.59779C32.3799 4.59716 31.5087 4.23401 30.8656 3.5879C30.2225 2.94179 29.86 2.06539 29.8575 1.1507C29.8646 0.99531 29.8403 0.840091 29.7861 0.694419C29.732 0.548747 29.649 0.415647 29.5423 0.303163C29.4356 0.190678 29.3073 0.101146 29.1653 0.0399748C29.0233 -0.021196 28.8704 -0.0527344 28.7159 -0.0527344C28.5614 -0.0527344 28.4085 -0.021196 28.2665 0.0399748C28.1244 0.101146 27.9962 0.190678 27.8895 0.303163C27.7828 0.415647 27.6998 0.548747 27.6456 0.694419C27.5915 0.840091 27.5672 0.99531 27.5743 1.1507C27.5751 1.87556 27.3477 2.58202 26.9247 3.16857C24.0538 1.22574 20.6734 0.187632 17.2144 0.186573C7.72301 0.186573 0 7.9262 0 17.4415C0 26.9567 7.72301 34.6963 17.2144 34.6963C17.998 34.6969 18.7808 34.646 19.5577 34.5437C20.1036 35.302 20.82 35.9192 21.6485 36.3449C22.4769 36.7706 23.3938 36.9926 24.3239 36.9928C25.8709 36.9928 26.8236 36.4041 27.3674 36.22C29.1381 35.4933 30.4445 36.4429 30.9041 36.5616C31.7985 36.9242 32.7677 37.0603 33.7266 36.958C34.6855 36.8557 35.6048 36.5181 36.4039 35.9748C37.2031 35.4316 37.8577 34.6992 38.3103 33.8419C38.7629 32.9847 38.9997 32.0287 39 31.0579V26.4553C39.0011 25.061 38.5147 23.7109 37.6261 22.6416C36.7374 21.5724 35.5033 20.8523 34.14 20.6075V20.6124ZM36.7144 26.4601C36.7187 27.0553 36.5758 27.6422 36.2986 28.1678C36.0214 28.6935 35.6186 29.1414 35.1265 29.4712C33.1295 30.8302 31.3155 29.5705 30.9233 29.4881C28.183 28.3762 26.0898 29.7304 25.6784 29.8273C25.1309 30.0496 24.5375 30.1333 23.9504 30.0709C23.3632 30.0086 22.8003 29.8022 22.3108 29.4699C21.8213 29.1375 21.4203 28.6893 21.1429 28.1645C20.8655 27.6398 20.7203 27.0545 20.7198 26.4601C20.7203 25.8817 20.858 25.3118 21.1214 24.7977C21.3847 24.2836 21.7662 23.8403 22.234 23.5046C22.7018 23.1689 23.2425 22.9504 23.811 22.8675C24.3795 22.7845 24.9595 22.8394 25.5028 23.0275L26.7803 23.4757C29.3354 24.3647 31.2096 23.1898 31.9218 23.0275C32.4653 22.8384 33.0458 22.7828 33.615 22.8653C34.1842 22.9478 34.7255 23.1661 35.194 23.5019C35.6624 23.8378 36.0443 24.2814 36.308 24.796C36.5716 25.3106 36.7093 25.8811 36.7096 26.4601H36.7144ZM24.6848 20.5325C23.2457 20.4465 21.8251 20.8933 20.6907 21.7889C19.5562 22.6844 18.7861 23.9667 18.5256 25.3942C18.0917 25.4611 17.6534 25.4951 17.2144 25.496C15.5002 25.481 13.8362 24.9122 12.4672 23.8733C11.0983 22.8344 10.097 21.3804 9.61058 19.7253C9.1242 18.0703 9.17854 16.3018 9.76559 14.6802C10.3526 13.0585 11.4414 11.6696 12.8714 10.7179C14.3015 9.7662 15.9973 9.30203 17.7091 9.39376C19.4209 9.48548 21.0582 10.1283 22.3798 11.2274C23.7015 12.3266 24.6377 13.824 25.0504 15.4992C25.4632 17.1744 25.3308 18.9387 24.6727 20.5325H24.6848ZM28.7147 4.60264C29.0419 5.03907 29.4282 5.4272 29.8623 5.75571C29.4287 6.08487 29.0425 6.47291 28.7147 6.90878C28.3883 6.47241 28.0029 6.08428 27.5695 5.75571C28.0034 5.4278 28.389 5.03958 28.7147 4.60264ZM17.2144 32.3975C8.98371 32.3975 2.29766 25.6874 2.29766 17.4439C2.31357 13.4711 3.89217 9.6665 6.68787 6.86297C9.48357 4.05945 13.2686 2.48541 17.2144 2.48545C19.8773 2.48678 22.4929 3.19445 24.7978 4.53723C24.5832 4.58036 24.3647 4.60146 24.1458 4.60022C23.8427 4.60022 23.5521 4.72145 23.3377 4.93723C23.1234 5.15302 23.003 5.44569 23.003 5.75087C23.003 6.05604 23.1234 6.34871 23.3377 6.5645C23.5521 6.78028 23.8427 6.90151 24.1458 6.90151C25.0547 6.9028 25.926 7.26689 26.5687 7.91398C27.2114 8.56107 27.573 9.43834 27.5743 10.3535C27.5672 10.5088 27.5915 10.6641 27.6456 10.8097C27.6998 10.9554 27.7828 11.0885 27.8895 11.201C27.9962 11.3135 28.1244 11.403 28.2665 11.4642C28.4085 11.5253 28.5614 11.5569 28.7159 11.5569C28.8704 11.5569 29.0233 11.5253 29.1653 11.4642C29.3073 11.403 29.4356 11.3135 29.5423 11.201C29.649 11.0885 29.732 10.9554 29.7861 10.8097C29.8403 10.6641 29.8646 10.5088 29.8575 10.3535C29.8584 10.1 29.8866 9.8474 29.9417 9.60009C31.3918 11.9542 32.1554 14.6713 32.1455 17.4415C32.1447 18.5282 32.0269 19.6117 31.7943 20.673C31.5874 20.7214 31.3828 20.782 31.1759 20.8498C30.3435 21.0581 29.179 21.8745 27.5358 21.2979L26.9151 21.0751C27.348 19.9131 27.5713 18.6825 27.5743 17.4415C27.5743 11.7294 22.8948 7.08562 17.2144 7.08562C11.534 7.08562 6.85447 11.7221 6.85447 17.4415C6.85447 23.1608 11.534 27.7924 17.2144 27.7924C17.6219 27.7915 18.029 27.7689 18.4342 27.7246V31.0579C18.4335 31.488 18.4795 31.9168 18.5713 32.3369C18.119 32.3732 17.6619 32.395 17.2144 32.395V32.3975ZM31.7582 34.4299C31.3444 34.3281 29.2488 32.9764 26.5133 34.0883C26.1163 34.1731 24.3118 35.4352 22.3077 34.0713C21.8277 33.7512 21.4324 33.3181 21.1561 32.8094C20.8798 32.3008 20.7309 31.732 20.7222 31.1523C21.5354 31.787 22.4997 32.1958 23.5189 32.3377C24.538 32.4797 25.5763 32.3499 26.5301 31.9614C27.0113 31.8403 28.3057 30.9052 30.0644 31.6223C30.6105 31.804 31.5609 32.3926 33.1079 32.3926C34.4143 32.3943 35.6841 31.9579 36.7168 31.1523C36.702 31.7391 36.5463 32.3136 36.2629 32.8266C35.9795 33.3396 35.5769 33.7758 35.0896 34.098C34.6022 34.4201 34.0446 34.6186 33.4644 34.6764C32.8842 34.7342 32.2988 34.6496 31.7582 34.4299Z" fill="#2C88E1"/>
</g>
<defs>
<clipPath id="clip0_79_2993">
<rect width="39" height="37" fill="white"/>
</clipPath>
</defs>
</svg>
