<svg width="55" height="55" viewBox="0 0 55 55" fill="none" xmlns="http://www.w3.org/2000/svg">
<g clip-path="url(#clip0_187_730)">
<path fill-rule="evenodd" clip-rule="evenodd" d="M51.7748 25.1176V24.1711C51.7748 10.7193 40.6633 0 27.393 0C24.2199 0.000425098 21.0779 0.62606 18.1466 1.84116C15.2153 3.05626 12.5522 4.83701 10.3093 7.08168C8.06646 9.32634 6.28785 11.9909 5.07511 14.9232C3.86237 17.8555 3.23927 20.9979 3.2414 24.1711V25.1176C2.22295 26.0466 1.40886 27.1774 0.850842 28.4379C0.292824 29.6985 0.0030745 31.0613 0 32.4399C0.00257434 35.0035 1.02211 37.4614 2.83485 39.2741C4.6476 41.0869 7.10547 42.1064 9.66908 42.109H14.502C15.7838 42.1081 17.0129 41.5988 17.9196 40.6927C18.8263 39.7866 19.3364 38.5579 19.3382 37.2761V27.393C19.3373 26.1107 18.8275 24.8811 17.9207 23.9743C17.014 23.0675 15.7844 22.5577 14.502 22.5569H12.9818C13.3821 19.0136 15.0722 15.7414 17.7299 13.3641C20.3877 10.9867 23.8272 9.67036 27.393 9.66584C34.9552 9.66584 41.2014 15.3156 42.0182 22.5569H40.498C39.8625 22.5564 39.2331 22.6812 38.6458 22.924C38.0585 23.1668 37.5248 23.5229 37.0751 23.972C36.6254 24.4211 36.2686 24.9543 36.025 25.5413C35.7814 26.1283 35.6558 26.7575 35.6554 27.393V37.2761C35.6571 38.5579 36.1672 39.7866 37.0739 40.6927C37.9806 41.5988 39.2097 42.1081 40.4915 42.109H42.1122V43.7297C42.1088 45.0101 41.5977 46.2368 40.6912 47.141C39.7846 48.0451 38.5564 48.5529 37.2761 48.5529H35.3863C35.0519 47.6113 34.4344 46.7961 33.6185 46.2193C32.8025 45.6425 31.8281 45.3322 30.8289 45.3309H27.393C26.7476 45.3142 26.1054 45.4269 25.5042 45.6623C24.9031 45.8978 24.3551 46.2512 23.8927 46.7018C23.4303 47.1524 23.0628 47.691 22.8119 48.2859C22.561 48.8807 22.4317 49.5198 22.4317 50.1655C22.4317 50.8111 22.561 51.4502 22.8119 52.0451C23.0628 52.6399 23.4303 53.1785 23.8927 53.6291C24.3551 54.0797 24.9031 54.4331 25.5042 54.6686C26.1054 54.904 26.7476 55.0167 27.393 55H30.8289C31.8305 54.9973 32.8066 54.6842 33.6228 54.1037C34.439 53.5232 35.0551 52.7039 35.3863 51.7586H37.2761C39.4121 51.7569 41.4602 50.9078 42.971 49.3977C44.4817 47.8876 45.3316 45.8398 45.3342 43.7037V42.083C47.8972 42.0796 50.3542 41.0597 52.1663 39.247C53.9783 37.4344 54.9974 34.977 55 32.414C54.9977 31.0353 54.7083 29.6722 54.1503 28.4115C53.5922 27.1508 52.7777 26.0202 51.7586 25.0916L51.7748 25.1176ZM30.8289 51.7748H27.393C27.1666 51.7997 26.9375 51.7766 26.7206 51.707C26.5037 51.6374 26.3039 51.5229 26.1342 51.3709C25.9646 51.2189 25.8289 51.0328 25.736 50.8248C25.6431 50.6169 25.5951 50.3916 25.5951 50.1638C25.5951 49.9361 25.6431 49.7108 25.736 49.5028C25.8289 49.2949 25.9646 49.1088 26.1342 48.9568C26.3039 48.8048 26.5037 48.6902 26.7206 48.6206C26.9375 48.551 27.1666 48.528 27.393 48.5529H30.8289C31.0553 48.528 31.2845 48.551 31.5014 48.6206C31.7183 48.6902 31.9181 48.8048 32.0877 48.9568C32.2574 49.1088 32.3931 49.2949 32.486 49.5028C32.5789 49.7108 32.6269 49.9361 32.6269 50.1638C32.6269 50.3916 32.5789 50.6169 32.486 50.8248C32.3931 51.0328 32.2574 51.2189 32.0877 51.3709C31.9181 51.5229 31.7183 51.6374 31.5014 51.707C31.2845 51.7766 31.0553 51.7997 30.8289 51.7748ZM9.66908 38.8968C7.96141 38.8899 6.32607 38.2065 5.1213 36.9962C3.91652 35.786 3.24052 34.1476 3.2414 32.4399C3.2414 28.829 6.19107 25.7788 9.68529 25.7788V38.8968H9.66908ZM14.502 25.7788C14.9318 25.7788 15.3441 25.9496 15.648 26.2535C15.952 26.5575 16.1227 26.9697 16.1227 27.3995V37.2761C16.1227 37.7059 15.952 38.1181 15.648 38.4221C15.3441 38.726 14.9318 38.8968 14.502 38.8968H12.8813V25.7788H14.502ZM42.109 38.8968H40.4883C40.0584 38.8968 39.6462 38.726 39.3423 38.4221C39.0383 38.1181 38.8676 37.7059 38.8676 37.2761V27.393C38.8676 26.9632 39.0383 26.551 39.3423 26.247C39.6462 25.9431 40.0584 25.7723 40.4883 25.7723H42.109V38.8968ZM45.2596 22.5666C44.4331 13.5912 36.712 6.45362 27.393 6.45362C22.9747 6.45958 18.7174 8.11321 15.4534 11.0912C12.1894 14.0693 10.1535 18.1576 9.74364 22.5569H9.66908C8.58222 22.5576 7.50387 22.7485 6.48279 23.1209C6.75753 17.7575 9.07938 12.7038 12.9698 9.0016C16.8602 5.29936 22.0226 3.23069 27.393 3.22195C38.7055 3.22195 47.9727 12.0548 48.5302 23.1209C47.5059 22.7479 46.4242 22.557 45.3342 22.5569L45.2596 22.5666ZM45.3342 38.8968V25.7788C48.8251 25.7788 51.7748 28.829 51.7748 32.4399C51.7765 34.1501 51.099 35.7909 49.8913 37.0018C48.6835 38.2126 47.0443 38.8942 45.3342 38.8968Z" fill="#2C88E1"/>
</g>
<defs>
<clipPath id="clip0_187_730">
<rect width="55" height="55" fill="white"/>
</clipPath>
</defs>
</svg>
