<svg width="36" height="36" viewBox="0 0 36 36" fill="none" xmlns="http://www.w3.org/2000/svg">
<mask id="mask0_293_353" style="mask-type:alpha" maskUnits="userSpaceOnUse" x="0" y="0" width="36" height="36">
<rect width="36" height="36" fill="#D9D9D9"/>
</mask>
<g mask="url(#mask0_293_353)">
<path d="M17.9987 20.0985L10.6487 27.4485C10.3737 27.7235 10.0237 27.861 9.59873 27.861C9.17373 27.861 8.82373 27.7235 8.54873 27.4485C8.27373 27.1735 8.13623 26.8235 8.13623 26.3985C8.13623 25.9735 8.27373 25.6235 8.54873 25.3485L15.8987 17.9985L8.54873 10.6485C8.27373 10.3735 8.13623 10.0235 8.13623 9.59849C8.13623 9.17349 8.27373 8.82349 8.54873 8.54849C8.82373 8.27349 9.17373 8.13599 9.59873 8.13599C10.0237 8.13599 10.3737 8.27349 10.6487 8.54849L17.9987 15.8985L25.3487 8.54849C25.6237 8.27349 25.9737 8.13599 26.3987 8.13599C26.8237 8.13599 27.1737 8.27349 27.4487 8.54849C27.7237 8.82349 27.8612 9.17349 27.8612 9.59849C27.8612 10.0235 27.7237 10.3735 27.4487 10.6485L20.0987 17.9985L27.4487 25.3485C27.7237 25.6235 27.8612 25.9735 27.8612 26.3985C27.8612 26.8235 27.7237 27.1735 27.4487 27.4485C27.1737 27.7235 26.8237 27.861 26.3987 27.861C25.9737 27.861 25.6237 27.7235 25.3487 27.4485L17.9987 20.0985Z" fill="#5A4633"/>
</g>
</svg>
