<svg width="40" height="40" viewBox="0 0 40 40" fill="none" xmlns="http://www.w3.org/2000/svg">
<g clip-path="url(#clip0_293_372)">
<path fill-rule="evenodd" clip-rule="evenodd" d="M38.8289 32.9706H35.3128V19.5324C35.3128 19.5324 35.3268 19.5324 35.3296 19.5324C35.5785 19.7119 35.8877 19.7868 36.1911 19.7411C36.4945 19.6955 36.7679 19.5328 36.9529 19.2881L39.7613 15.5361C39.8549 15.4121 39.9227 15.2706 39.9609 15.12C39.999 14.9694 40.0067 14.8128 39.9834 14.6592C39.9601 14.5056 39.9063 14.3582 39.8253 14.2257C39.7442 14.0932 39.6375 13.9782 39.5113 13.8875C39.3316 13.7611 20.7821 0.28084 20.6923 0.224672C20.4918 0.0802003 20.2513 0.00168117 20.0042 0C19.7571 0.00168117 19.5166 0.0802003 19.3162 0.224672L11.7335 5.73756V3.59475C11.7335 3.28389 11.6102 2.98573 11.3906 2.76566C11.1711 2.54559 10.8732 2.42158 10.5624 2.42084H5.85832C5.54746 2.42158 5.2496 2.54559 5.03005 2.76566C4.81051 2.98573 4.68721 3.28389 4.68721 3.59475V10.8432L0.474619 13.8988C0.350079 13.9901 0.245144 14.1056 0.16603 14.2382C0.086916 14.3709 0.0352327 14.5181 0.014042 14.6711C-0.00895188 14.8243 -0.00143693 14.9807 0.0361552 15.131C0.0737473 15.2814 0.140676 15.4229 0.233097 15.5473L3.04149 19.2993C3.22647 19.5441 3.49993 19.7067 3.80331 19.7524C4.1067 19.798 4.41591 19.7231 4.66475 19.5436H4.6816V32.9706H1.1711C0.860506 32.9706 0.562632 33.094 0.343008 33.3136C0.123384 33.5332 0 33.8311 0 34.1417C0 34.4523 0.123384 34.7502 0.343008 34.9698C0.562632 35.1894 0.860506 35.3128 1.1711 35.3128H11.0005L9.498 38.3065C9.41006 38.4849 9.36908 38.6827 9.37894 38.8812C9.3888 39.0798 9.44917 39.2726 9.55435 39.4413C9.65952 39.61 9.806 39.7491 9.97994 39.8454C10.1539 39.9417 10.3495 39.992 10.5483 39.9916H29.3646C29.5632 39.9915 29.7585 39.9409 29.932 39.8444C30.1056 39.7479 30.2517 39.6087 30.3565 39.4401C30.4614 39.2715 30.5215 39.0789 30.5312 38.8805C30.541 38.6822 30.5 38.4846 30.4121 38.3065L28.9265 35.3128H38.8289C39.1395 35.3128 39.4374 35.1894 39.657 34.9698C39.8766 34.7502 40 34.4523 40 34.1417C40 33.8311 39.8766 33.5332 39.657 33.3136C39.4374 33.094 39.1395 32.9706 38.8289 32.9706ZM7.02099 4.77428H9.3632V7.44787C8.57123 8.0264 7.78207 8.59651 7.02099 9.14976V4.77428ZM4.2126 16.9796L2.8084 15.1036L20.0014 2.62023L37.1776 15.0951L35.7734 16.9711C35.6695 16.8953 20.9506 6.26834 20.6923 6.0858C20.4932 5.93956 20.2526 5.8607 20.0056 5.8607C19.7586 5.8607 19.518 5.93956 19.319 6.0858C19.2488 6.13635 4.30527 16.9178 4.23787 16.9711L4.2126 16.9796ZM7.02099 17.8502L20.0014 8.47855L32.9678 17.8417V32.9706H28.1935V22.3464C28.1935 22.0356 28.0702 21.7374 27.8507 21.5173C27.6311 21.2973 27.3333 21.1733 27.0224 21.1725H12.8905C12.7365 21.1725 12.584 21.2029 12.4417 21.2619C12.2995 21.3209 12.1702 21.4075 12.0615 21.5165C11.9527 21.6256 11.8665 21.755 11.8078 21.8974C11.7491 22.0398 11.7191 22.1924 11.7194 22.3464V32.9706H7.02099V17.8417V17.8502ZM21.1725 32.9706V23.5175H25.8597V32.9706H21.1725ZM14.0645 32.9706V23.5175H18.8387V32.9706H14.0645ZM12.444 37.6578L13.6151 35.3128H26.3063L27.4774 37.6578H12.444Z" fill="#2C88E1"/>
<path fill-rule="evenodd" clip-rule="evenodd" d="M20.0014 18.8162C20.6973 18.8156 21.3774 18.6086 21.9555 18.2212C22.5337 17.8339 22.9839 17.2838 23.2492 16.6404C23.5144 15.997 23.5828 15.2894 23.4457 14.6072C23.3086 13.9249 22.9721 13.2987 22.4788 12.8078C21.9856 12.3169 21.3577 11.9834 20.6748 11.8496C19.9919 11.7157 19.2847 11.7875 18.6426 12.0559C18.0005 12.3243 17.4525 12.7771 17.068 13.3571C16.6835 13.9371 16.4797 14.6182 16.4824 15.3141C16.4862 16.2447 16.8586 17.1358 17.5182 17.7923C18.1778 18.4487 19.0708 18.8169 20.0014 18.8162ZM20.0014 14.1289C20.2337 14.1284 20.4609 14.1968 20.6543 14.3254C20.8477 14.4541 20.9986 14.6372 21.0879 14.8517C21.1772 15.0661 21.2009 15.3022 21.1559 15.5302C21.1109 15.7581 20.9993 15.9675 20.8353 16.1319C20.6712 16.2964 20.462 16.4085 20.2342 16.454C20.0064 16.4995 19.7703 16.4764 19.5556 16.3877C19.3409 16.2989 19.1574 16.1484 19.0283 15.9553C18.8992 15.7622 18.8303 15.5352 18.8303 15.3029C18.8332 14.994 18.9578 14.6987 19.177 14.481C19.3963 14.2634 19.6925 14.1409 20.0014 14.1402V14.1289Z" fill="#2C88E1"/>
</g>
<defs>
<clipPath id="clip0_293_372">
<rect width="40" height="40" fill="white"/>
</clipPath>
</defs>
</svg>
