<svg width="15" height="15" viewBox="0 0 15 15" fill="none" xmlns="http://www.w3.org/2000/svg">
<path d="M7.5 1.40625C9.11616 1.40625 10.6661 2.04827 11.8089 3.19107C12.9517 4.33387 13.5938 5.88384 13.5938 7.5C13.5938 9.11616 12.9517 10.6661 11.8089 11.8089C10.6661 12.9517 9.11616 13.5938 7.5 13.5938C5.88384 13.5938 4.33387 12.9517 3.19107 11.8089C2.04827 10.6661 1.40625 9.11616 1.40625 7.5C1.40625 5.88384 2.04827 4.33387 3.19107 3.19107C4.33387 2.04827 5.88384 1.40625 7.5 1.40625ZM7.5 15C9.48912 15 11.3968 14.2098 12.8033 12.8033C14.2098 11.3968 15 9.48912 15 7.5C15 5.51088 14.2098 3.60322 12.8033 2.1967C11.3968 0.790176 9.48912 0 7.5 0C5.51088 0 3.60322 0.790176 2.1967 2.1967C0.790176 3.60322 0 5.51088 0 7.5C0 9.48912 0.790176 11.3968 2.1967 12.8033C3.60322 14.2098 5.51088 15 7.5 15ZM6.32812 9.84375C5.93848 9.84375 5.625 10.1572 5.625 10.5469C5.625 10.9365 5.93848 11.25 6.32812 11.25H8.67188C9.06152 11.25 9.375 10.9365 9.375 10.5469C9.375 10.1572 9.06152 9.84375 8.67188 9.84375H8.4375V7.26562C8.4375 6.87598 8.12402 6.5625 7.73438 6.5625H6.32812C5.93848 6.5625 5.625 6.87598 5.625 7.26562C5.625 7.65527 5.93848 7.96875 6.32812 7.96875H7.03125V9.84375H6.32812ZM7.5 5.625C7.74864 5.625 7.9871 5.52623 8.16291 5.35041C8.33873 5.1746 8.4375 4.93614 8.4375 4.6875C8.4375 4.43886 8.33873 4.2004 8.16291 4.02459C7.9871 3.84877 7.74864 3.75 7.5 3.75C7.25136 3.75 7.0129 3.84877 6.83709 4.02459C6.66127 4.2004 6.5625 4.43886 6.5625 4.6875C6.5625 4.93614 6.66127 5.1746 6.83709 5.35041C7.0129 5.52623 7.25136 5.625 7.5 5.625Z" fill="#9B9B9B"/>
</svg>
