<svg width="34" height="39" viewBox="0 0 34 39" fill="none" xmlns="http://www.w3.org/2000/svg">
<g clip-path="url(#clip0_172_716)">
<path fill-rule="evenodd" clip-rule="evenodd" d="M34 1.14281C33.9994 0.839499 33.8794 0.548826 33.6665 0.334576C33.4535 0.120326 33.165 -6.69342e-07 32.8641 0L1.13349 0C0.832872 0 0.544563 0.120403 0.331992 0.334722C0.119421 0.549041 0 0.83972 0 1.14281L0 37.8572C0 38.1603 0.119421 38.451 0.331992 38.6653C0.544563 38.8796 0.832872 39 1.13349 39H32.8713C33.0203 39.0003 33.168 38.971 33.3058 38.9137C33.4436 38.8564 33.5688 38.7723 33.6743 38.6661C33.7798 38.56 33.8635 38.4339 33.9207 38.2951C33.9778 38.1563 34.0072 38.0075 34.0072 37.8572V1.14281H34ZM31.7378 18.3596H27.9197C24.734 13.1411 24.0587 5.98353 23.9346 2.28563H31.7378V18.3596ZM23.2569 28.1709C23.2959 28.2127 23.3373 28.2521 23.381 28.2888C23.517 28.4115 23.6578 28.5294 23.801 28.6401C23.3722 28.967 22.9914 29.3533 22.6698 29.7877C22.3461 29.3493 21.962 28.9596 21.5292 28.6305C21.9607 28.3081 22.3447 27.9258 22.6698 27.4949C22.8497 27.7351 23.0476 27.9611 23.2617 28.1709H23.2569ZM23.8415 24.6126C23.8126 24.4336 23.7983 24.2526 23.7986 24.0713C23.7986 23.7682 23.6791 23.4775 23.4666 23.2632C23.254 23.0488 22.9657 22.9284 22.6651 22.9284C22.3645 22.9284 22.0761 23.0488 21.8636 23.2632C21.651 23.4775 21.5316 23.7682 21.5316 24.0713C21.5303 24.9791 21.1722 25.8494 20.5358 26.4916C19.8993 27.1337 19.0363 27.4954 18.1359 27.4973C17.8353 27.4973 17.547 27.6177 17.3344 27.832C17.1218 28.0463 17.0024 28.337 17.0024 28.6401C17.0024 28.9432 17.1218 29.2339 17.3344 29.4482C17.547 29.6625 17.8353 29.7829 18.1359 29.7829C19.0351 29.7848 19.897 30.1455 20.5332 30.7861C21.1695 31.4267 21.5284 32.2951 21.5316 33.2017C21.5317 33.4039 21.5853 33.6024 21.6867 33.7767C21.6205 34.7513 21.6062 35.7287 21.6437 36.7047H12.4636C12.54 34.3109 12.6331 28.9264 8.0991 19.565C11.5974 13.8653 12.3157 6.18322 12.4398 2.28563H21.6652C21.7917 6.18322 22.51 13.8653 26.0083 19.5746C25.1683 21.3093 24.4429 22.9934 23.8415 24.6126ZM10.1752 2.28563C10.0511 5.98353 9.37339 13.1411 6.18052 18.3596H2.26698V2.28563H10.1752ZM2.26698 20.6428H6.08506C10.3804 29.5447 10.2563 34.5346 10.1871 36.7144H2.26698V20.6428ZM23.9107 36.7144C23.8331 34.9976 23.9436 33.2774 24.24 31.5849C24.24 31.5585 24.24 31.532 24.24 31.5055C24.539 30.98 24.9708 30.5437 25.4914 30.2411C26.012 29.9385 26.6029 29.7804 27.2038 29.7829C27.5044 29.7829 27.7927 29.6625 28.0053 29.4482C28.2179 29.2339 28.3373 28.9432 28.3373 28.6401C28.3373 28.337 28.2179 28.0463 28.0053 27.832C27.7927 27.6177 27.5044 27.4973 27.2038 27.4973C26.5731 27.4978 25.9547 27.3203 25.4189 26.9848C26.1433 24.8156 27.009 22.697 28.0104 20.6428H31.7378V36.7144H23.9107Z" fill="#2C88E1"/>
<path fill-rule="evenodd" clip-rule="evenodd" d="M21.5311 13.7884C20.6302 13.7864 19.7669 13.4245 19.1304 12.7818C18.4938 12.1391 18.136 11.2682 18.1354 10.3599C18.1354 10.0568 18.016 9.76614 17.8034 9.55182C17.5908 9.33751 17.3025 9.2171 17.0019 9.2171C16.7013 9.2171 16.413 9.33751 16.2004 9.55182C15.9878 9.76614 15.8684 10.0568 15.8684 10.3599C15.8678 11.2694 15.509 12.1414 14.8709 12.7843C14.2328 13.4272 13.3676 13.7884 12.4655 13.7884C12.1649 13.7884 11.8766 13.9088 11.664 14.1231C11.4515 14.3374 11.332 14.6281 11.332 14.9312C11.332 15.2343 11.4515 15.5249 11.664 15.7393C11.8766 15.9536 12.1649 16.074 12.4655 16.074C13.3668 16.0746 14.231 16.4357 14.8685 17.078C15.506 17.7203 15.8647 18.5913 15.866 19.5C15.866 19.8031 15.9854 20.0938 16.198 20.3081C16.4106 20.5224 16.6989 20.6428 16.9995 20.6428C17.3001 20.6428 17.5884 20.5224 17.801 20.3081C18.0136 20.0938 18.133 19.8031 18.133 19.5C18.1342 18.5918 18.4927 17.7211 19.1297 17.0788C19.7667 16.4366 20.6302 16.0753 21.5311 16.074C21.8317 16.074 22.12 15.9536 22.3326 15.7393C22.5451 15.5249 22.6646 15.2343 22.6646 14.9312C22.6646 14.6281 22.5451 14.3374 22.3326 14.1231C22.12 13.9088 21.8317 13.7884 21.5311 13.7884ZM16.9971 16.0764C16.6739 15.6418 16.2906 15.2561 15.8588 14.9312C16.29 14.6046 16.6732 14.2182 16.9971 13.7835C17.3208 14.2184 17.704 14.6048 18.1354 14.9312C17.7049 15.2568 17.3225 15.6424 16.9995 16.0764H16.9971Z" fill="#2C88E1"/>
</g>
<defs>
<clipPath id="clip0_172_716">
<rect width="34" height="39" fill="white"/>
</clipPath>
</defs>
</svg>
