<svg width="36" height="35" viewBox="0 0 36 35" fill="none" xmlns="http://www.w3.org/2000/svg">
<g clip-path="url(#clip0_1_2115)">
<path fill-rule="evenodd" clip-rule="evenodd" d="M22.6664 35C22.8261 34.9418 22.9683 34.8457 23.0802 34.7204C23.1796 34.6116 23.2538 34.4833 23.298 34.3442C23.3421 34.2051 23.3551 34.0584 23.3361 33.914L21.6895 21.0074C21.5148 19.7586 20.8807 18.614 19.905 17.7863C18.9293 16.9586 17.6783 16.5041 16.3845 16.5072H14.9225L15.8883 4.41783V4.40266C15.9314 3.83697 15.8542 3.26869 15.6614 2.73344C15.4686 2.19818 15.1644 1.7075 14.7678 1.29214C14.3712 0.876782 13.8908 0.545704 13.3568 0.319659C12.8227 0.0936132 12.2464 -0.0225253 11.6641 -0.0214773C11.0818 -0.0204294 10.506 0.0977825 9.97281 0.325749C9.4396 0.553715 8.96047 0.88652 8.56547 1.3033C8.17047 1.72009 7.8681 2.21186 7.67732 2.74781C7.48655 3.28375 7.41147 3.8523 7.45681 4.41783L8.42256 16.5072H6.89827C5.61162 16.5063 4.36891 16.9631 3.40355 17.7917C2.4382 18.6204 1.81663 19.7639 1.6556 21.0074L1.36865e-05 33.914C-0.00317839 33.9537 -0.00317839 33.9935 1.36865e-05 34.0332V34.0462C0.00120401 34.2942 0.0953792 34.5332 0.264818 34.7182C0.373147 34.8431 0.511517 34.9399 0.667587 35H22.6664ZM9.56856 4.26609C9.54979 3.98442 9.59054 3.70199 9.68828 3.43627C9.78602 3.17054 9.93868 2.92718 10.1368 2.72122C10.335 2.51527 10.5744 2.3511 10.8402 2.23886C11.1061 2.12663 11.3928 2.06873 11.6825 2.06873C11.9723 2.06873 12.259 2.12663 12.5248 2.23886C12.7907 2.3511 13.0301 2.51527 13.2283 2.72122C13.4264 2.92718 13.5791 3.17054 13.6768 3.43627C13.7746 3.70199 13.8153 3.98442 13.7965 4.26609L12.8041 16.5072H10.5388L9.56856 4.26609ZM3.74955 21.2632C3.84613 20.5164 4.21946 19.8298 4.79932 19.3324C5.37919 18.8349 6.12564 18.5611 6.89827 18.5622H16.3845C17.1628 18.5628 17.9151 18.8355 18.5044 19.3308C19.0937 19.8261 19.4809 20.5111 19.5955 21.261L21.0953 33.0144H2.24974L3.74955 21.2632Z" fill="#2C88E1"/>
<path fill-rule="evenodd" clip-rule="evenodd" d="M17.4303 21.519C17.3993 21.2701 17.2758 21.0409 17.0831 20.8747C16.8904 20.7086 16.6418 20.617 16.3845 20.6172H6.89826C6.64118 20.6179 6.39316 20.7098 6.20065 20.8758C6.00814 21.0418 5.88433 21.2705 5.8524 21.519L4.78651 29.8062C4.75198 30.0766 4.82918 30.3494 5.00111 30.5645C5.17305 30.7795 5.42563 30.9192 5.70331 30.9529C5.98098 30.9865 6.261 30.9113 6.48176 30.7438C6.70252 30.5763 6.84594 30.3303 6.88046 30.0598L7.82174 22.6722H15.4521L16.3912 30.0598C16.4356 30.3222 16.5826 30.5576 16.8013 30.7168C17.02 30.876 17.2934 30.9466 17.5643 30.9139C17.8352 30.8811 18.0826 30.7475 18.2547 30.541C18.4267 30.3345 18.5101 30.0712 18.4873 29.8062L17.4303 21.519Z" fill="#2C88E1"/>
<path fill-rule="evenodd" clip-rule="evenodd" d="M22.288 0.000194886C22.1322 0.00012017 21.9783 0.0337464 21.8375 0.0986464C21.6966 0.163546 21.5723 0.258101 21.4735 0.375485C21.3748 0.492869 21.304 0.630154 21.2663 0.77743C21.2286 0.924707 21.2249 1.0783 21.2555 1.22712L23.345 11.4718V13.4227C23.3455 14.0596 23.5483 14.6807 23.9256 15.2008C24.3029 15.7209 24.8362 16.1144 25.4523 16.3275V31.9849C25.4531 32.6903 25.702 33.3741 26.1575 33.9224C26.613 34.4707 27.2477 34.8503 27.9557 34.998H29.2909C29.9987 34.8502 30.6331 34.4705 31.0883 33.9222C31.5434 33.3739 31.7918 32.6901 31.7921 31.9849V16.3296C32.4086 16.117 32.9424 15.7235 33.3201 15.2034C33.6978 14.6833 33.901 14.062 33.9016 13.4249V11.4739L35.9911 1.22929C36.0221 1.07855 36.018 0.922959 35.979 0.773979C35.9401 0.624998 35.8673 0.486428 35.7661 0.36848C35.6649 0.250533 35.5378 0.156214 35.3942 0.0924746C35.2506 0.0287356 35.0941 -0.00279901 34.9363 0.000194886H22.288ZM28.6166 33.0146C28.3373 33.014 28.0696 32.9055 27.8722 32.7128C27.6749 32.5202 27.5641 32.2592 27.5641 31.9871V16.5074H29.6714V31.9871C29.6714 32.122 29.6441 32.2556 29.5911 32.3803C29.5381 32.5049 29.4604 32.6182 29.3625 32.7136C29.2645 32.809 29.1483 32.8847 29.0203 32.9363C28.8923 32.988 28.7552 33.0146 28.6166 33.0146ZM31.7809 13.4249C31.7809 13.6974 31.6698 13.9587 31.472 14.1514C31.2742 14.3441 31.0059 14.4524 30.7262 14.4524H26.4982C26.2186 14.4518 25.9507 14.3434 25.753 14.1508C25.5553 13.9582 25.444 13.6972 25.4434 13.4249V12.3996H31.772V13.4249H31.7809ZM31.9701 10.3424H25.2654L23.5742 2.05519H25.4523V5.13769C25.4648 5.40232 25.5815 5.65208 25.7782 5.83505C25.9748 6.01802 26.2363 6.12012 26.5082 6.12012C26.7802 6.12012 27.0416 6.01802 27.2383 5.83505C27.4349 5.65208 27.5516 5.40232 27.5641 5.13769V2.05519H29.6714V5.13769C29.6714 5.27262 29.6987 5.40623 29.7517 5.5309C29.8047 5.65556 29.8824 5.76883 29.9803 5.86424C30.0783 5.95965 30.1946 6.03534 30.3225 6.08698C30.4505 6.13861 30.5877 6.16519 30.7262 6.16519C30.8647 6.16519 31.0018 6.13861 31.1298 6.08698C31.2578 6.03534 31.3741 5.95965 31.472 5.86424C31.5699 5.76883 31.6476 5.65556 31.7006 5.5309C31.7537 5.40623 31.7809 5.27262 31.7809 5.13769V2.05519H33.6613L31.9701 10.3424Z" fill="#2C88E1"/>
</g>
<defs>
<clipPath id="clip0_1_2115">
<rect width="36" height="35" fill="white"/>
</clipPath>
</defs>
</svg>
