<svg width="35" height="35" viewBox="0 0 35 35" fill="none" xmlns="http://www.w3.org/2000/svg">
<g clip-path="url(#clip0_172_725)">
<path fill-rule="evenodd" clip-rule="evenodd" d="M26.7973 10.31V9.23041C26.7964 8.58522 26.5929 7.95662 26.2155 7.43327C25.8382 6.90991 25.3061 6.5182 24.6943 6.31339C24.481 4.57273 23.6386 2.97012 22.3259 1.80731C21.0132 0.644505 19.3206 0.00172396 17.5669 0L13.3307 0C11.4275 0.0017142 9.60278 0.758347 8.25685 2.10387C6.91092 3.4494 6.15374 5.27391 6.15145 7.17705V18.7005C5.5525 18.9141 5.03418 19.3075 4.6674 19.827C4.30061 20.3464 4.10328 20.9665 4.10241 21.6024V28.8486H3.07465C2.25918 28.8497 1.47746 29.1743 0.901043 29.7511C0.324621 30.3279 0.000571057 31.1099 0 31.9254L0 33.9744C0 34.2464 0.108054 34.5073 0.300392 34.6996C0.492729 34.8919 0.753595 35 1.0256 35H13.3328C13.6048 35 13.8657 34.8919 14.058 34.6996C14.2504 34.5073 14.3584 34.2464 14.3584 33.9744V31.9254C14.3578 31.1095 14.0335 30.3272 13.4566 29.7504C12.8797 29.1735 12.0975 28.8491 11.2816 28.8486H10.2539V21.6024C10.2533 20.9664 10.0561 20.3462 9.68926 19.8267C9.32243 19.3072 8.80393 18.9138 8.20481 18.7005V7.17705C8.20652 5.81812 8.74712 4.51533 9.70803 3.55442C10.6689 2.59351 11.9717 2.05292 13.3307 2.0512H17.5669C18.7839 2.05247 19.9608 2.48574 20.8881 3.27383C21.8154 4.06191 22.4327 5.15361 22.6302 6.35441C22.0469 6.57578 21.5446 6.96912 21.1899 7.48232C20.8352 7.99553 20.6447 8.60439 20.6437 9.22825V10.4309C20.0444 10.6435 19.5255 11.0363 19.1582 11.5555C18.791 12.0746 18.5934 12.6947 18.5925 13.3307V25.7739C17.7318 26.4196 17.0961 27.3198 16.7756 28.347C16.455 29.3741 16.4658 30.4761 16.8064 31.4968C17.147 32.5175 17.8002 33.4051 18.6734 34.0338C19.5466 34.6626 20.5955 35.0006 21.6715 35H31.9232C32.7387 34.9994 33.5206 34.6754 34.0974 34.099C34.6743 33.5225 34.9989 32.7408 35 31.9254V19.5512C35.0049 17.2724 34.1714 15.0713 32.6584 13.3672C31.1455 11.6631 29.0586 10.575 26.7952 10.31H26.7973ZM12.3072 31.9254V32.9488H2.0512V31.9254C2.0512 31.6537 2.15896 31.3932 2.35083 31.2009C2.5427 31.0086 2.80301 30.9003 3.07465 30.8998H11.2795C11.5517 30.8998 11.8127 31.0077 12.0054 31.2C12.1981 31.3923 12.3066 31.6531 12.3072 31.9254ZM6.15361 28.8486V21.6024C6.15361 21.3304 6.26166 21.0695 6.454 20.8772C6.64634 20.6849 6.9072 20.5768 7.17921 20.5768C7.45122 20.5768 7.71208 20.6849 7.90442 20.8772C8.09676 21.0695 8.20481 21.3304 8.20481 21.6024V28.8486H6.15361ZM23.7205 8.20481C23.9924 8.20538 24.2529 8.31362 24.4451 8.50583C24.6373 8.69805 24.7456 8.95858 24.7461 9.23041V10.256H22.6949V9.22825C22.6961 8.9568 22.8046 8.69682 22.9967 8.50507C23.1889 8.31332 23.4491 8.20538 23.7205 8.20481ZM18.5925 29.8742C18.5921 29.2656 18.7721 28.6706 19.1099 28.1644C19.4476 27.6582 19.9279 27.2635 20.4899 27.0302C21.052 26.797 21.6705 26.7356 22.2675 26.8539C22.8644 26.9722 23.4128 27.2648 23.8434 27.6948C24.274 28.1248 24.5675 28.6729 24.6866 29.2696C24.8057 29.8664 24.7452 30.4851 24.5128 31.0474C24.2803 31.6098 23.8863 32.0906 23.3805 32.4291C22.8748 32.7675 22.28 32.9484 21.6715 32.9488C20.8558 32.9482 20.0737 32.6242 19.4965 32.0479C18.9193 31.4715 18.5942 30.6898 18.5925 29.8742ZM31.9232 32.9488H25.7696C26.3427 32.1874 26.692 31.2812 26.7784 30.3321C26.8648 29.383 26.6848 28.4287 26.2586 27.5763C25.8324 26.7239 25.1769 26.0073 24.3658 25.5069C23.5547 25.0066 22.6202 24.7424 21.6672 24.744C21.3221 24.7436 20.9778 24.7776 20.6394 24.8455V13.3307C20.64 13.1957 20.6671 13.0622 20.7193 12.9377C20.7715 12.8132 20.8477 12.7002 20.9435 12.6052C21.0393 12.5101 21.1529 12.4349 21.2779 12.3838C21.4028 12.3327 21.5365 12.3066 21.6715 12.3072H24.7461V21.6046C24.7473 22.42 25.0719 23.2017 25.6487 23.7782C26.2255 24.3546 27.0075 24.6786 27.8229 24.6792H32.9488V31.9275C32.9482 32.1991 32.8399 32.4595 32.6476 32.6513C32.4554 32.8432 32.1948 32.951 31.9232 32.951V32.9488ZM32.9488 22.628H27.8229C27.5511 22.6274 27.2906 22.5192 27.0984 22.327C26.9062 22.1348 26.7979 21.8742 26.7973 21.6024V12.3785C28.5122 12.6383 30.0766 13.5054 31.2057 14.822C32.3348 16.1385 32.9534 17.8168 32.9488 19.5512V22.628Z" fill="#2C88E1"/>
<path fill-rule="evenodd" clip-rule="evenodd" d="M22.6918 29.8742C22.6918 30.077 22.6317 30.2753 22.519 30.444C22.4063 30.6126 22.2461 30.7441 22.0587 30.8217C21.8713 30.8993 21.6651 30.9196 21.4661 30.8801C21.2672 30.8405 21.0845 30.7428 20.941 30.5994C20.7976 30.4559 20.6999 30.2732 20.6603 30.0743C20.6208 29.8753 20.6411 29.6691 20.7187 29.4817C20.7963 29.2943 20.9278 29.1341 21.0964 29.0214C21.2651 28.9087 21.4634 28.8486 21.6662 28.8486C21.9382 28.8486 22.1991 28.9566 22.3914 29.149C22.5838 29.3413 22.6918 29.6022 22.6918 29.8742Z" fill="#2C88E1"/>
</g>
<defs>
<clipPath id="clip0_172_725">
<rect width="35" height="35" fill="white"/>
</clipPath>
</defs>
</svg>
