<svg width="39" height="37" viewBox="0 0 39 37" fill="none" xmlns="http://www.w3.org/2000/svg">
<g clip-path="url(#clip0_172_782)">
<path fill-rule="evenodd" clip-rule="evenodd" d="M25.2856 25.4959C25.2856 25.7235 25.2186 25.946 25.093 26.1352C24.9675 26.3244 24.789 26.4719 24.5801 26.559C24.3713 26.6461 24.1415 26.6689 23.9199 26.6245C23.6982 26.5801 23.4945 26.4705 23.3347 26.3096C23.1749 26.1486 23.0661 25.9436 23.022 25.7204C22.9779 25.4972 23.0005 25.2658 23.087 25.0556C23.1735 24.8453 23.32 24.6656 23.5079 24.5392C23.6958 24.4128 23.9168 24.3453 24.1428 24.3453C24.4459 24.3453 24.7366 24.4665 24.9509 24.6823C25.1652 24.8981 25.2856 25.1908 25.2856 25.4959Z" fill="#2C88E1"/>
<path fill-rule="evenodd" clip-rule="evenodd" d="M29.8579 26.6466C29.8584 26.8743 29.7917 27.097 29.6665 27.2865C29.5412 27.476 29.3629 27.6239 29.1541 27.7114C28.9453 27.7988 28.7154 27.822 28.4936 27.7778C28.2718 27.7337 28.0679 27.6243 27.9078 27.4635C27.7478 27.3027 27.6387 27.0976 27.5944 26.8744C27.5501 26.6511 27.5726 26.4196 27.659 26.2092C27.7455 25.9988 27.8919 25.819 28.0799 25.6924C28.2679 25.5659 28.4889 25.4984 28.7151 25.4984C29.0178 25.4984 29.3081 25.6192 29.5223 25.8345C29.7366 26.0498 29.8573 26.3418 29.8579 26.6466Z" fill="#2C88E1"/>
<path fill-rule="evenodd" clip-rule="evenodd" d="M34.14 20.6123C34.3333 19.5666 34.4308 18.5051 34.4312 17.4414C34.4441 13.891 33.3566 10.425 31.3203 7.52644C31.8962 7.11769 32.5837 6.89852 33.2883 6.89903C33.5914 6.89903 33.8821 6.7778 34.0964 6.56201C34.3107 6.34622 34.4312 6.05355 34.4312 5.74838C34.4312 5.44321 34.3107 5.15054 34.0964 4.93475C33.8821 4.71896 33.5914 4.59773 33.2883 4.59773C32.3799 4.5971 31.5087 4.23395 30.8656 3.58784C30.2225 2.94173 29.86 2.06533 29.8575 1.15063C29.8646 0.995249 29.8403 0.84003 29.7861 0.694358C29.732 0.548686 29.649 0.415586 29.5423 0.303102C29.4356 0.190617 29.3073 0.101084 29.1653 0.0399137C29.0233 -0.021257 28.8704 -0.0527954 28.7159 -0.0527954C28.5614 -0.0527954 28.4085 -0.021257 28.2665 0.0399137C28.1244 0.101084 27.9962 0.190617 27.8895 0.303102C27.7828 0.415586 27.6998 0.548686 27.6456 0.694358C27.5915 0.84003 27.5672 0.995249 27.5743 1.15063C27.5751 1.8755 27.3477 2.58196 26.9247 3.16851C24.0538 1.22568 20.6734 0.187571 17.2144 0.186512C7.72301 0.186512 0 7.92614 0 17.4414C0 26.9566 7.72301 34.6963 17.2144 34.6963C17.998 34.6969 18.7808 34.6459 19.5577 34.5437C20.1036 35.3019 20.82 35.9192 21.6485 36.3449C22.4769 36.7706 23.3938 36.9926 24.3239 36.9927C25.8709 36.9927 26.8236 36.4041 27.3674 36.22C29.1381 35.4932 30.4445 36.4428 30.9041 36.5615C31.7985 36.9241 32.7677 37.0602 33.7266 36.9579C34.6855 36.8556 35.6048 36.518 36.4039 35.9748C37.2031 35.4315 37.8577 34.6991 38.3103 33.8419C38.7629 32.9846 38.9997 32.0287 39 31.0578V26.4552C39.0011 25.061 38.5147 23.7108 37.6261 22.6416C36.7374 21.5723 35.5033 20.8522 34.14 20.6075V20.6123ZM36.7144 26.46C36.7187 27.0552 36.5758 27.6421 36.2986 28.1678C36.0214 28.6935 35.6186 29.1414 35.1265 29.4711C33.1295 30.8301 31.3155 29.5704 30.9233 29.4881C28.183 28.3762 26.0898 29.7303 25.6784 29.8272C25.1309 30.0495 24.5375 30.1332 23.9504 30.0709C23.3632 30.0086 22.8003 29.8022 22.3108 29.4698C21.8213 29.1374 21.4203 28.6892 21.1429 28.1645C20.8655 27.6397 20.7203 27.0545 20.7198 26.46C20.7203 25.8816 20.858 25.3117 21.1214 24.7976C21.3847 24.2836 21.7662 23.8403 22.234 23.5045C22.7018 23.1688 23.2425 22.9504 23.811 22.8674C24.3795 22.7844 24.9595 22.8393 25.5028 23.0275L26.7803 23.4756C29.3354 24.3647 31.2096 23.1898 31.9218 23.0275C32.4653 22.8383 33.0458 22.7827 33.615 22.8652C34.1842 22.9477 34.7255 23.166 35.194 23.5019C35.6624 23.8377 36.0443 24.2814 36.308 24.7959C36.5716 25.3105 36.7093 25.8811 36.7096 26.46H36.7144ZM24.6848 20.5324C23.2457 20.4464 21.8251 20.8933 20.6907 21.7888C19.5562 22.6843 18.7861 23.9666 18.5256 25.3942C18.0917 25.461 17.6534 25.495 17.2144 25.4959C15.5002 25.4809 13.8362 24.9121 12.4672 23.8732C11.0983 22.8344 10.097 21.3803 9.61058 19.7253C9.1242 18.0703 9.17854 16.3017 9.76559 14.6801C10.3526 13.0585 11.4414 11.6696 12.8714 10.7178C14.3015 9.76614 15.9973 9.30197 17.7091 9.3937C19.4209 9.48542 21.0582 10.1282 22.3798 11.2274C23.7015 12.3265 24.6377 13.824 25.0504 15.4991C25.4632 17.1743 25.3308 18.9387 24.6727 20.5324H24.6848ZM28.7147 4.60258C29.0419 5.03901 29.4282 5.42713 29.8623 5.75565C29.4287 6.08481 29.0425 6.47285 28.7147 6.90872C28.3883 6.47235 28.0029 6.08422 27.5695 5.75565C28.0034 5.42774 28.389 5.03952 28.7147 4.60258ZM17.2144 32.3974C8.98371 32.3974 2.29766 25.6873 2.29766 17.4438C2.31357 13.471 3.89217 9.66643 6.68787 6.86291C9.48357 4.05939 13.2686 2.48535 17.2144 2.48539C19.8773 2.48672 22.4929 3.19439 24.7978 4.53717C24.5832 4.5803 24.3647 4.6014 24.1458 4.60016C23.8427 4.60016 23.5521 4.72139 23.3377 4.93717C23.1234 5.15296 23.003 5.44563 23.003 5.7508C23.003 6.05597 23.1234 6.34865 23.3377 6.56444C23.5521 6.78022 23.8427 6.90145 24.1458 6.90145C25.0547 6.90273 25.926 7.26683 26.5687 7.91392C27.2114 8.56101 27.573 9.43828 27.5743 10.3534C27.5672 10.5088 27.5915 10.664 27.6456 10.8097C27.6998 10.9553 27.7828 11.0884 27.8895 11.2009C27.9962 11.3134 28.1244 11.4029 28.2665 11.4641C28.4085 11.5253 28.5614 11.5568 28.7159 11.5568C28.8704 11.5568 29.0233 11.5253 29.1653 11.4641C29.3073 11.4029 29.4356 11.3134 29.5423 11.2009C29.649 11.0884 29.732 10.9553 29.7861 10.8097C29.8403 10.664 29.8646 10.5088 29.8575 10.3534C29.8584 10.0999 29.8866 9.84734 29.9417 9.60003C31.3918 11.9542 32.1554 14.6713 32.1455 17.4414C32.1447 18.5282 32.0269 19.6117 31.7943 20.6729C31.5874 20.7213 31.3828 20.7819 31.1759 20.8497C30.3435 21.0581 29.179 21.8744 27.5358 21.2979L26.9151 21.075C27.348 19.913 27.5713 18.6825 27.5743 17.4414C27.5743 11.7293 22.8948 7.08556 17.2144 7.08556C11.534 7.08556 6.85447 11.7221 6.85447 17.4414C6.85447 23.1607 11.534 27.7924 17.2144 27.7924C17.6219 27.7915 18.029 27.7688 18.4342 27.7245V31.0578C18.4335 31.4879 18.4795 31.9168 18.5713 32.3368C18.119 32.3732 17.6619 32.395 17.2144 32.395V32.3974ZM31.7582 34.4298C31.3444 34.3281 29.2488 32.9763 26.5133 34.0882C26.1163 34.173 24.3118 35.4351 22.3077 34.0713C21.8277 33.7512 21.4324 33.318 21.1561 32.8094C20.8798 32.3007 20.7309 31.7319 20.7222 31.1523C21.5354 31.7869 22.4997 32.1957 23.5189 32.3377C24.538 32.4796 25.5763 32.3499 26.5301 31.9614C27.0113 31.8402 28.3057 30.9052 30.0644 31.6222C30.6105 31.8039 31.5609 32.3925 33.1079 32.3925C34.4143 32.3942 35.6841 31.9579 36.7168 31.1523C36.702 31.7391 36.5463 32.3136 36.2629 32.8265C35.9795 33.3395 35.5769 33.7758 35.0896 34.0979C34.6022 34.42 34.0446 34.6185 33.4644 34.6763C32.8842 34.7341 32.2988 34.6495 31.7582 34.4298Z" fill="#2C88E1"/>
</g>
<defs>
<clipPath id="clip0_172_782">
<rect width="39" height="37" fill="white"/>
</clipPath>
</defs>
</svg>
