<svg width="55" height="55" viewBox="0 0 55 55" fill="none" xmlns="http://www.w3.org/2000/svg">
<g clip-path="url(#clip0_187_732)">
<path fill-rule="evenodd" clip-rule="evenodd" d="M9.26911 38.1624L7.61982 38.6266C7.20898 38.7418 6.86072 39.0155 6.65166 39.3874C6.4426 39.7594 6.38986 40.1992 6.50505 40.61C6.62023 41.0208 6.8939 41.3691 7.26586 41.5782C7.63781 41.7872 8.07758 41.84 8.48842 41.7248L10.1412 41.2641C10.3449 41.2068 10.5353 41.11 10.7015 40.9792C10.8678 40.8483 11.0066 40.686 11.1101 40.5015C11.2136 40.317 11.2798 40.1139 11.3048 39.9039C11.3299 39.6938 11.3133 39.4809 11.256 39.2772C11.1987 39.0735 11.1019 38.8832 10.9711 38.7169C10.8402 38.5507 10.6779 38.4118 10.4934 38.3083C10.3089 38.2048 10.1059 38.1386 9.89578 38.1136C9.68571 38.0886 9.47277 38.1052 9.26911 38.1624Z" fill="#2C88E1"/>
<path fill-rule="evenodd" clip-rule="evenodd" d="M27.9395 39.5585L25.0383 38.4085C24.8405 38.3237 24.6278 38.2794 24.4126 38.2782C24.1975 38.277 23.9842 38.3189 23.7855 38.4015C23.5868 38.4841 23.4067 38.6056 23.2558 38.7589C23.1048 38.9123 22.9861 39.0943 22.9067 39.2943C22.8273 39.4943 22.7887 39.7081 22.7933 39.9232C22.7979 40.1384 22.8456 40.3504 22.9335 40.5468C23.0214 40.7432 23.1477 40.9199 23.3051 41.0667C23.4625 41.2134 23.6476 41.3272 23.8497 41.4012L26.7474 42.5511C27.1447 42.7092 27.5885 42.703 27.9813 42.5338C28.374 42.3647 28.6834 42.0464 28.8415 41.6491C28.9996 41.2518 28.9934 40.8079 28.8242 40.4152C28.6551 40.0225 28.3368 39.713 27.9395 39.555V39.5585Z" fill="#2C88E1"/>
<path fill-rule="evenodd" clip-rule="evenodd" d="M43.7181 37.5962C43.5064 37.5962 43.2969 37.638 43.1014 37.7192C42.906 37.8004 42.7285 37.9194 42.5792 38.0694C42.4299 38.2194 42.3116 38.3974 42.2313 38.5932C42.1509 38.7889 42.11 38.9987 42.111 39.2103V39.6253L41.7136 39.7413C41.3042 39.864 40.9602 40.1442 40.7574 40.5205C40.5546 40.8967 40.5096 41.3381 40.6322 41.7476C40.7549 42.157 41.0351 42.501 41.4114 42.7037C41.7876 42.9065 42.229 42.9516 42.6385 42.8289L44.1823 42.3612C44.514 42.2614 44.8046 42.0573 45.0111 41.7792C45.2177 41.5011 45.329 41.1638 45.3287 40.8174V39.2103C45.3291 38.9985 45.2878 38.7887 45.2071 38.5929C45.1264 38.3971 45.0078 38.2191 44.8582 38.0692C44.7086 37.9192 44.5309 37.8003 44.3352 37.7191C44.1396 37.638 43.9299 37.5962 43.7181 37.5962Z" fill="#2C88E1"/>
<path fill-rule="evenodd" clip-rule="evenodd" d="M43.7187 0C40.7145 0.018602 37.8402 1.22773 35.7261 3.36227C33.612 5.49681 32.4306 8.38257 32.4409 11.3868C32.4367 13.569 33.0685 15.7051 34.259 17.5339L36.8015 21.4514L34.048 22.5416L18.4552 16.3488C18.104 16.2003 17.7113 16.1816 17.3475 16.296L1.14994 21.1244C0.817575 21.2224 0.525908 21.4254 0.318607 21.7031C0.111306 21.9808 -0.00047497 22.3181 1.51703e-06 22.6646V51.7753C0.000113951 52.0262 0.0587527 52.2737 0.17126 52.4981C0.283767 52.7224 0.447042 52.9175 0.648114 53.0677C0.849187 53.2179 1.08252 53.3191 1.32957 53.3634C1.57662 53.4076 1.83059 53.3937 2.07129 53.3226L17.7554 48.6455L33.4255 54.8593C33.7781 55.0074 34.1717 55.0261 34.5368 54.9121L50.6394 50.0943C50.9705 49.9958 51.261 49.793 51.4676 49.5161C51.6741 49.2392 51.7857 48.903 51.7858 48.5575V19.6931L53.1925 17.5374C54.3841 15.7087 55.0182 13.573 55.0176 11.3903C55.0288 8.38184 53.8449 5.492 51.7261 3.35609C49.6074 1.22018 46.7272 0.0130313 43.7187 0ZM19.454 38.9994C19.7054 38.8605 19.915 38.6567 20.0609 38.4093C20.2068 38.1619 20.2838 37.8799 20.2838 37.5927C20.2838 37.3055 20.2068 37.0235 20.0609 36.7761C19.915 36.5287 19.7054 36.325 19.454 36.1861V20.2065L32.4655 25.3724V41.9006C32.094 42.0755 31.8025 42.3846 31.6496 42.7657C31.499 43.1431 31.4973 43.5636 31.6448 43.9422C31.7924 44.3208 32.0781 44.6293 32.4444 44.8053V51.0157L19.4329 45.8533V38.9994H19.454ZM3.2353 23.8779L16.2468 20.0096V36.0911L15.2446 36.3935C14.8351 36.5167 14.4914 36.7974 14.2889 37.1739C14.0864 37.5505 14.0419 37.9921 14.165 38.4015C14.2881 38.811 14.5688 39.1547 14.9454 39.3572C15.3219 39.5597 15.7635 39.6043 16.173 39.4811L16.2468 39.4565V45.7583L3.2353 49.6266V23.8673V23.8779ZM48.5646 47.3689L35.6762 51.2372V44.9143L36.5729 44.6611C36.9747 44.5345 37.311 44.2554 37.5094 43.8837C37.7079 43.5121 37.7529 43.0774 37.6346 42.673C37.5164 42.2686 37.2444 41.9267 36.8769 41.7205C36.5095 41.5143 36.0759 41.4602 35.6691 41.57V25.3935L38.602 24.219L42.3296 29.9476C42.1894 30.1901 42.1166 30.4657 42.1186 30.7458V32.4655C42.1084 32.6831 42.1425 32.9005 42.2188 33.1045C42.295 33.3086 42.4119 33.4951 42.5623 33.6527C42.7127 33.8103 42.8935 33.9357 43.0938 34.0214C43.294 34.1071 43.5096 34.1513 43.7275 34.1513C43.9453 34.1513 44.1609 34.1071 44.3612 34.0214C44.5614 33.9357 44.7422 33.8103 44.8926 33.6527C45.043 33.4951 45.1599 33.3086 45.2362 33.1045C45.3124 32.9005 45.3465 32.6831 45.3363 32.4655V30.7212C45.3355 30.441 45.2615 30.1659 45.1218 29.923L48.5575 24.648V47.3689H48.5646ZM50.4917 15.7826L43.7187 26.1567L36.9597 15.7721C36.1112 14.467 35.6604 12.9435 35.6621 11.3868C35.6621 9.25009 36.5109 7.20087 38.0218 5.68996C39.5327 4.17906 41.5819 3.33024 43.7187 3.33024C45.8554 3.33024 47.9046 4.17906 49.4155 5.68996C50.9264 7.20087 51.7753 9.25009 51.7753 11.3868C51.777 12.9435 51.3261 14.467 50.4776 15.7721L50.4917 15.7826Z" fill="#2C88E1"/>
<path fill-rule="evenodd" clip-rule="evenodd" d="M43.718 6.44592C42.4271 6.47708 41.1994 7.01091 40.2963 7.93376C39.3931 8.8566 38.8859 10.0955 38.8826 11.3868C38.8652 12.0325 38.9773 12.6752 39.2124 13.2768C39.4475 13.8785 39.8007 14.427 40.2513 14.8899C40.7019 15.3527 41.2406 15.7207 41.8357 15.9719C42.4308 16.2231 43.0703 16.3525 43.7162 16.3525C44.3622 16.3525 45.0016 16.2231 45.5967 15.9719C46.1918 15.7207 46.7306 15.3527 47.1811 14.8899C47.6317 14.427 47.9849 13.8785 48.22 13.2768C48.4551 12.6752 48.5672 12.0325 48.5498 11.3868C48.5466 10.0961 48.0398 8.8577 47.1374 7.93496C46.235 7.01221 45.0082 6.47798 43.718 6.44592ZM43.718 13.0009C43.2911 12.999 42.8823 12.8282 42.5812 12.5257C42.28 12.2232 42.1109 11.8137 42.1109 11.3868C42.0929 11.1645 42.1211 10.941 42.1938 10.7302C42.2665 10.5194 42.382 10.326 42.5332 10.1621C42.6843 9.9982 42.8678 9.86739 43.072 9.77792C43.2762 9.68845 43.4968 9.64226 43.7197 9.64226C43.9427 9.64226 44.1632 9.68845 44.3675 9.77792C44.5717 9.86739 44.7551 9.9982 44.9063 10.1621C45.0575 10.326 45.173 10.5194 45.2457 10.7302C45.3184 10.941 45.3466 11.1645 45.3286 11.3868C45.33 11.5993 45.2894 11.8101 45.2091 12.0069C45.1288 12.2037 45.0105 12.3828 44.8608 12.5337C44.7112 12.6847 44.5332 12.8046 44.337 12.8866C44.1409 12.9686 43.9305 13.011 43.718 13.0115V13.0009Z" fill="#2C88E1"/>
</g>
<defs>
<clipPath id="clip0_187_732">
<rect width="55" height="55" fill="white"/>
</clipPath>
</defs>
</svg>
