<svg width="55" height="55" viewBox="0 0 55 55" fill="none" xmlns="http://www.w3.org/2000/svg">
<g clip-path="url(#clip0_187_726)">
<path fill-rule="evenodd" clip-rule="evenodd" d="M45.9708 13.964C47.1587 12.8628 47.9872 11.4291 48.3482 9.85005C48.7092 8.27096 48.5858 6.61976 47.9943 5.11179C47.4028 3.60382 46.3706 2.3091 45.0323 1.39648C43.6939 0.483869 42.1116 -0.00427246 40.4917 -0.00427246C38.8717 -0.00427246 37.2894 0.483869 35.9511 1.39648C34.6127 2.3091 33.5805 3.60382 32.989 5.11179C32.3975 6.61976 32.2742 8.27096 32.6351 9.85005C32.9961 11.4291 33.8246 12.8628 35.0126 13.964C32.275 15.0484 29.9324 16.9405 28.2966 19.3887C28.028 19.3663 27.763 19.3514 27.4907 19.3514C27.2183 19.3514 26.9497 19.3514 26.681 19.3887C25.0448 16.9408 22.7024 15.0488 19.9651 13.964C21.1518 12.863 21.9792 11.43 22.3394 9.85178C22.6997 8.27359 22.576 6.6235 21.9845 5.11663C21.3931 3.60976 20.3613 2.31605 19.0237 1.40417C17.6862 0.492285 16.1048 0.00454684 14.486 0.00454684C12.8671 0.00454684 11.2858 0.492285 9.94819 1.40417C8.61061 2.31605 7.57883 3.60976 6.98739 5.11663C6.39594 6.6235 6.27227 8.27359 6.6325 9.85178C6.99273 11.43 7.82014 12.863 9.00686 13.964C6.34354 15.0573 4.06531 16.9174 2.4616 19.3082C0.857886 21.699 0.00107093 24.5125 4.44078e-06 27.3913V33.8382C-0.000493643 34.0497 0.0409124 34.2591 0.12183 34.4545C0.202749 34.6498 0.321575 34.8272 0.471445 34.9763C0.621315 35.1255 0.799258 35.2435 0.994995 35.3235C1.19073 35.4035 1.40038 35.444 1.61184 35.4425H18.3309C16.6349 36.7954 15.2653 38.5127 14.3236 40.467C13.3819 42.4214 12.8922 44.5626 12.8909 46.732V53.3878C12.8909 53.8153 13.0607 54.2252 13.363 54.5275C13.6653 54.8297 14.0753 54.9995 14.5028 54.9995H40.501C40.9278 54.9985 41.3368 54.8283 41.6383 54.5261C41.9398 54.224 42.1091 53.8146 42.1091 53.3878V46.7283C42.1087 44.5596 41.6199 42.4189 40.6787 40.4652C39.7376 38.5114 38.3685 36.7946 36.6729 35.4425H53.3919C53.6034 35.4425 53.8128 35.4008 54.0082 35.3197C54.2035 35.2387 54.381 35.1199 54.5303 34.9702C54.6797 34.8205 54.7981 34.6428 54.8787 34.4472C54.9593 34.2517 55.0005 34.0422 55 33.8307V27.3913C54.9979 24.5093 54.1381 21.6932 52.5302 19.3014C50.9222 16.9096 48.6389 15.0503 45.9708 13.9603V13.964ZM40.501 3.22296C41.4603 3.22296 42.3981 3.50742 43.1957 4.04035C43.9934 4.57328 44.6151 5.33076 44.9822 6.217C45.3493 7.10324 45.4454 8.07843 45.2582 9.01926C45.0711 9.96008 44.6091 10.8243 43.9308 11.5026C43.2524 12.1809 42.3881 12.6428 41.4473 12.8299C40.5064 13.0171 39.5311 12.921 38.6448 12.5539C37.7585 12.1869 37.001 11.5652 36.468 10.7676C35.935 9.97002 35.6506 9.03231 35.6506 8.07305C35.6555 6.78996 36.1687 5.56111 37.0778 4.65557C37.9869 3.75004 39.2178 3.24161 40.501 3.24162V3.22296ZM27.5019 22.5599C28.4572 22.5775 29.386 22.8769 30.1718 23.4204C30.9576 23.964 31.5653 24.7275 31.9187 25.6151C32.2721 26.5028 32.3555 27.475 32.1584 28.4099C31.9612 29.3447 31.4923 30.2005 30.8106 30.8699C30.1288 31.5393 29.2645 31.9924 28.3261 32.1724C27.3878 32.3524 26.4172 32.2513 25.5361 31.8817C24.655 31.5121 23.9027 30.8905 23.3735 30.095C22.8444 29.2995 22.5621 28.3654 22.5619 27.41C22.5873 26.1161 23.1187 24.8837 24.0422 23.977C24.9656 23.0703 26.2077 22.5616 27.5019 22.5599ZM14.5028 3.22296C15.4629 3.21927 16.4025 3.50058 17.2026 4.03127C18.0027 4.56195 18.6273 5.31813 18.9972 6.20404C19.3672 7.08995 19.4659 8.06572 19.2809 9.00777C19.0958 9.94982 18.6354 10.8158 17.9578 11.4959C17.2802 12.1761 16.416 12.6399 15.4746 12.8285C14.5332 13.0172 13.557 12.9222 12.6696 12.5557C11.7822 12.1892 11.0235 11.5675 10.4897 10.7695C9.95595 9.97155 9.671 9.0331 9.67099 8.07305C9.67098 6.78995 10.1794 5.55913 11.085 4.6501C11.9906 3.74107 13.2196 3.2279 14.5028 3.22296ZM3.21994 32.2265V27.3764C3.22783 24.3884 4.41968 21.5252 6.53444 19.4141C8.64921 17.303 11.5145 16.116 14.5028 16.113C16.2219 16.1089 17.9199 16.4925 19.4702 17.2353C21.0206 17.9782 22.3835 19.0611 23.4574 20.4035C22.2123 21.0981 21.1743 22.1113 20.4498 23.3392C19.7253 24.5672 19.3404 25.9656 19.3345 27.3913C19.3303 29.1469 19.9119 30.8537 20.9874 32.2414L3.21994 32.2265ZM25.89 51.7761H16.1146V46.7283C16.1177 44.9224 16.5557 43.1439 17.3915 41.5432C18.2273 39.9424 19.4364 38.5665 20.9165 37.5317L25.89 44.0495V51.7761ZM23.8379 36.0506C26.2149 35.2496 28.7889 35.2496 31.1658 36.0506L27.5019 40.8485L23.8379 36.0506ZM38.8892 46.7283V51.7761H29.1025V44.0495L34.0872 37.5317C35.5673 38.5665 36.7764 39.9424 37.6123 41.5432C38.4481 43.1439 38.8861 44.9224 38.8892 46.7283ZM51.7801 32.2265H34.0164C35.0889 30.8375 35.6691 29.1313 35.6655 27.3764C35.6603 25.9528 35.2777 24.556 34.5567 23.3285C33.8358 22.1009 32.8022 21.0865 31.5613 20.3885C32.6348 19.0458 33.9976 17.9625 35.5481 17.2197C37.0985 16.4768 38.7967 16.0934 40.5159 16.0981C43.5064 16.101 46.3736 17.2902 48.4882 19.4047C50.6028 21.5192 51.792 24.3861 51.795 27.3764L51.7801 32.2265Z" fill="#2C88E1"/>
<path fill-rule="evenodd" clip-rule="evenodd" d="M46.9443 22.5603H43.7206C43.5027 22.5498 43.2849 22.5837 43.0804 22.6599C42.8759 22.736 42.689 22.8529 42.5311 23.0034C42.3731 23.154 42.2474 23.335 42.1615 23.5355C42.0756 23.7361 42.0312 23.952 42.0313 24.1702C42.0312 24.3884 42.0756 24.6043 42.1615 24.8048C42.2474 25.0054 42.3731 25.1864 42.5311 25.3369C42.689 25.4875 42.8759 25.6043 43.0804 25.6805C43.2849 25.7567 43.5027 25.7905 43.7206 25.78H46.9443C47.1622 25.7905 47.38 25.7567 47.5845 25.6805C47.789 25.6043 47.9758 25.4875 48.1338 25.3369C48.2917 25.1864 48.4175 25.0054 48.5034 24.8048C48.5893 24.6043 48.6336 24.3884 48.6336 24.1702C48.6336 23.952 48.5893 23.7361 48.5034 23.5355C48.4175 23.335 48.2917 23.154 48.1338 23.0034C47.9758 22.8529 47.789 22.736 47.5845 22.6599C47.38 22.5837 47.1622 22.5498 46.9443 22.5603Z" fill="#2C88E1"/>
<path fill-rule="evenodd" clip-rule="evenodd" d="M11.2794 22.5603H8.05579C7.64221 22.5803 7.25215 22.7586 6.96649 23.0583C6.68083 23.358 6.52148 23.7562 6.52148 24.1702C6.52148 24.5842 6.68083 24.9824 6.96649 25.2821C7.25215 25.5818 7.64221 25.7601 8.05579 25.78H11.2794C11.4974 25.7905 11.7152 25.7567 11.9197 25.6805C12.1241 25.6043 12.311 25.4875 12.469 25.3369C12.6269 25.1864 12.7527 25.0054 12.8386 24.8048C12.9245 24.6043 12.9688 24.3884 12.9688 24.1702C12.9688 23.952 12.9245 23.7361 12.8386 23.5355C12.7527 23.335 12.6269 23.154 12.469 23.0034C12.311 22.8529 12.1241 22.736 11.9197 22.6599C11.7152 22.5837 11.4974 22.5498 11.2794 22.5603Z" fill="#2C88E1"/>
</g>
<defs>
<clipPath id="clip0_187_726">
<rect width="55" height="55" fill="white"/>
</clipPath>
</defs>
</svg>
