<svg width="40" height="40" viewBox="0 0 40 40" fill="none" xmlns="http://www.w3.org/2000/svg">
<g clip-path="url(#clip0_293_368)">
<path fill-rule="evenodd" clip-rule="evenodd" d="M38.8261 37.6573H35.2455V1.17394C35.2455 1.01913 35.2149 0.86585 35.1554 0.722922C35.096 0.579994 35.0088 0.450241 34.899 0.341132C34.7892 0.232023 34.6589 0.145714 34.5155 0.0871721C34.3722 0.0286306 34.2188 -0.000986742 34.0639 2.50764e-05H12.9693C12.8153 2.47092e-05 12.6627 0.0304073 12.5205 0.0894333C12.3782 0.148459 12.2489 0.234969 12.1401 0.344011C12.0313 0.453052 11.9451 0.582484 11.8864 0.724894C11.8277 0.867305 11.7976 1.0199 11.798 1.17394V15.3172C10.9276 14.6641 9.89254 14.2663 8.80881 14.1683C7.72508 14.0704 6.63548 14.2761 5.6621 14.7625C4.68873 15.249 3.87003 15.9968 3.29776 16.9223C2.72548 17.8479 2.42223 18.9144 2.422 20.0026C2.42234 20.4045 2.46781 20.8052 2.55755 21.197C1.75935 21.9462 1.12121 22.8494 0.681648 23.8521C0.242085 24.8547 0.0102051 25.936 0 27.0307C0.00911358 29.0134 0.733218 30.9262 2.03933 32.4179C3.34544 33.9096 5.14588 34.88 7.10998 35.1509V37.6573H1.17136C0.860693 37.6573 0.562754 37.7807 0.343082 38.0004C0.12341 38.2201 0 38.518 0 38.8287C0 39.1393 0.12341 39.4373 0.343082 39.6569C0.562754 39.8766 0.860693 40 1.17136 40H38.8261C39.1368 40 39.4347 39.8766 39.6544 39.6569C39.874 39.4373 39.9975 39.1393 39.9975 38.8287C39.9975 38.518 39.874 38.2201 39.6544 38.0004C39.4347 37.7807 39.1368 37.6573 38.8261 37.6573ZM21.179 21.1739V16.486H25.8568V21.1739H21.179ZM14.0179 21.1739C14.1027 20.7893 14.1456 20.3965 14.1458 20.0026V16.486H18.8287V21.1739H14.0179ZM25.8568 9.46294V14.1433H21.1714V9.46294H25.8568ZM21.1714 7.11V2.34529H25.8568V7.11H21.1714ZM32.89 14.1433H28.2046V9.46294H32.89V14.1433ZM18.8235 14.1433H14.1381V9.46294H18.8287V14.1433H18.8235ZM28.1995 16.486H32.89V21.1739H28.2046V16.486H28.1995ZM32.89 7.11H28.2046V2.34529H32.89V7.11ZM18.8235 2.34529V7.11H14.1381V2.34529H18.8235ZM2.34271 27.0307C2.36071 26.154 2.57499 25.2926 2.96979 24.5096C3.36458 23.7266 3.92986 23.0421 4.62404 22.5064C4.81351 22.3532 4.95037 22.1447 5.01548 21.9099C5.0806 21.6751 5.07071 21.4258 4.98721 21.197C4.8139 20.7152 4.74811 20.2013 4.79447 19.6914C4.84082 19.1816 4.9982 18.688 5.25555 18.2454C5.5129 17.8028 5.864 17.4218 6.2842 17.1293C6.70439 16.8368 7.18352 16.6398 7.68794 16.5521C8.19237 16.4644 8.70988 16.4881 9.20415 16.6216C9.69842 16.7552 10.1575 16.9952 10.5491 17.325C10.9408 17.6548 11.2555 18.0663 11.4712 18.5306C11.687 18.9949 11.7985 19.5008 11.798 20.0128C11.7929 20.4177 11.7168 20.8185 11.5729 21.197C11.4897 21.4261 11.4802 21.6755 11.5458 21.9103C11.6114 22.1451 11.7487 22.3536 11.9386 22.5064C12.8046 23.1986 13.4553 24.1233 13.8145 25.1721C14.1736 26.2209 14.2264 27.3503 13.9666 28.4281C13.7067 29.5058 13.1451 30.4871 12.3474 31.257C11.5498 32.0269 10.5492 32.5535 9.46292 32.775V29.8619L11.4629 27.8619C11.5719 27.7533 11.6584 27.6242 11.7175 27.4821C11.7767 27.34 11.8072 27.1877 11.8074 27.0338C11.8077 26.8799 11.7776 26.7275 11.7189 26.5852C11.6602 26.4429 11.5741 26.3136 11.4655 26.2046C11.3568 26.0956 11.2278 26.0091 11.0857 25.95C10.9436 25.8909 10.7913 25.8604 10.6374 25.8601C10.4835 25.8599 10.331 25.89 10.1888 25.9486C10.0465 26.0073 9.91717 26.0934 9.80819 26.2021L9.46292 26.5499V20.0026C9.46292 19.6919 9.33951 19.394 9.11984 19.1743C8.90016 18.9546 8.60223 18.8312 8.29156 18.8312C7.9809 18.8312 7.68296 18.9546 7.46329 19.1743C7.24362 19.394 7.12021 19.6919 7.12021 20.0026V24.2021L6.77494 23.8594C6.55517 23.6393 6.25696 23.5155 5.94592 23.5152C5.63488 23.515 5.33648 23.6383 5.11637 23.8581C4.89626 24.0779 4.77247 24.3761 4.77223 24.6871C4.77199 24.9981 4.89532 25.2965 5.11509 25.5167L7.11509 27.5192V32.7775C5.77719 32.5205 4.56999 31.807 3.69961 30.7589C2.82923 29.7108 2.34963 28.3931 2.34271 27.0307ZM9.46292 35.1509C10.2759 35.0342 11.0666 34.7954 11.8082 34.4425V37.6573H9.46292V35.1509ZM25.867 37.6573H21.1714V30.5473H25.8568V37.6573H25.867ZM28.2148 37.6573V30.5473H29.3836C29.6943 30.5473 29.9922 30.4239 30.2119 30.2043C30.4316 29.9846 30.555 29.6867 30.555 29.376C30.555 29.0653 30.4316 28.7674 30.2119 28.5477C29.9922 28.328 29.6943 28.2046 29.3836 28.2046H17.6471C17.3364 28.2046 17.0385 28.328 16.8188 28.5477C16.5991 28.7674 16.4757 29.0653 16.4757 29.376C16.4757 29.6867 16.5991 29.9846 16.8188 30.2043C17.0385 30.4239 17.3364 30.5473 17.6471 30.5473H18.8184V37.6573H14.1381V32.7673C15.6416 31.2365 16.4839 29.1764 16.4834 27.0307C16.4828 25.8178 16.2074 24.6207 15.6778 23.5294H32.89V37.6701L28.2148 37.6573Z" fill="#2C88E1"/>
</g>
<defs>
<clipPath id="clip0_293_368">
<rect width="40" height="40" fill="white"/>
</clipPath>
</defs>
</svg>
