<svg width="39" height="39" viewBox="0 0 39 39" fill="none" xmlns="http://www.w3.org/2000/svg">
<path fill-rule="evenodd" clip-rule="evenodd" d="M37.0241 29.5496C39 24.9556 39 21.0902 39 15.858C38.9994 15.2686 38.7653 14.7035 38.349 14.2863C37.9326 13.8692 37.3679 13.6341 36.7785 13.6324H36.5685C34.8993 13.5946 29.8684 13.4917 23.4622 17.3718C21.5556 18.5014 19.92 19.1817 18.1688 19.5764C17.1381 19.8045 16.0854 19.9193 15.0297 19.9187H8.8524V16.954H11.5233C11.8262 16.954 12.1167 16.8336 12.331 16.6194C12.5452 16.4052 12.6655 16.1147 12.6655 15.8118C12.6655 15.5089 12.5452 15.2183 12.331 15.0041C12.1167 14.7899 11.8262 14.6696 11.5233 14.6696H8.8524V4.95676C8.85182 4.32881 9.0725 3.72074 9.47575 3.23936C9.87899 2.75798 10.439 2.43408 11.0574 2.32455C11.6757 2.21502 12.3128 2.32687 12.8569 2.64045C13.401 2.95403 13.8172 3.44929 14.0324 4.03922C13.4305 4.29642 12.9173 4.72455 12.5564 5.27056C12.1955 5.81657 12.0027 6.45647 12.002 7.11097V8.88305C12.0025 9.29737 12.1673 9.6946 12.46 9.98776C12.7528 10.2809 13.1498 10.4462 13.5641 10.4473H17.1106C17.5251 10.4467 17.9224 10.2817 18.2153 9.98837C18.5082 9.69509 18.6727 9.29754 18.6727 8.88305V7.11097C18.6724 6.40796 18.4502 5.72299 18.0377 5.1537C17.6252 4.5844 17.0436 4.15984 16.3757 3.94054C16.1246 2.7405 15.4376 1.67613 14.4474 0.953173C13.4572 0.230219 12.2341 -0.099977 11.0145 0.026411C9.795 0.152799 8.66559 0.726796 7.84468 1.63745C7.02377 2.5481 6.56958 3.73074 6.56999 4.95676V19.9187H2.2173C1.62847 19.9209 1.06456 20.1563 0.648982 20.5735C0.233399 20.9906 -4.19246e-06 21.5554 0 22.1442V22.3542C0 26.1713 0.31494 29.2179 1.92541 33.5053C2.08547 33.9263 2.36942 34.289 2.73977 34.5453C3.11012 34.8017 3.54956 34.9398 4 34.9414H6.56999V37.8578C6.56999 38.1607 6.69032 38.4513 6.90453 38.6655C7.11874 38.8797 7.40928 39 7.71222 39C8.01516 39 8.3057 38.8797 8.51991 38.6655C8.73412 38.4513 8.85445 38.1607 8.85445 37.8578V34.9498H27.861V37.8578C27.861 38.1607 27.9814 38.4513 28.1956 38.6655C28.4098 38.8797 28.7004 39 29.0033 39C29.3063 39 29.5968 38.8797 29.811 38.6655C30.0252 38.4513 30.1456 38.1607 30.1456 37.8578V34.9498H32.8017C33.1733 34.951 33.5392 34.8581 33.8653 34.6797C34.1913 34.5012 34.4669 34.2431 34.6662 33.9294C35.5401 32.5818 36.3075 31.1679 36.9612 29.7008C36.9863 29.6519 37.008 29.6014 37.0263 29.5496H37.0241ZM16.3861 8.16078H14.2864V7.11097C14.2864 6.83254 14.397 6.56552 14.5939 6.36864C14.7908 6.17176 15.0578 6.06116 15.3363 6.06116C15.6147 6.06116 15.8818 6.17176 16.0786 6.36864C16.2755 6.56552 16.3861 6.83254 16.3861 7.11097V8.16078ZM2.28241 22.2051H15.0381C16.2611 22.2042 17.4804 22.0711 18.6748 21.8083C20.6779 21.3527 22.5173 20.5926 24.6422 19.335C30.4962 15.7887 35.0399 15.8895 36.5307 15.9231H36.705C36.705 19.2594 36.705 21.9028 36.2053 24.4832C35.9741 25.6965 35.6289 26.8853 35.1743 28.0337H2.72542C2.39988 26.1621 2.25157 24.2641 2.28241 22.3647V22.2072V22.2051ZM32.7618 32.6654H4.04614C3.73748 31.8382 3.47923 31.0613 3.26716 30.3139H34.1328C33.7318 31.076 33.2762 31.855 32.7618 32.6654Z" fill="#2C88E1"/>
</svg>
