<svg width="60" height="60" viewBox="0 0 60 60" fill="none" xmlns="http://www.w3.org/2000/svg">
<rect width="60" height="60" fill="#E8F4FF"/>
<g clip-path="url(#clip0_175_71)">
<path fill-rule="evenodd" clip-rule="evenodd" d="M32.6776 22.1789C34.0403 22.1818 35.3463 22.7246 36.3096 23.6886C37.2728 24.6525 37.8148 25.9589 37.8167 27.3216C37.8167 27.7762 37.9973 28.2122 38.3188 28.5337C38.6402 28.8552 39.0762 29.0358 39.5309 29.0358C39.9855 29.0358 40.4215 28.8552 40.743 28.5337C41.0645 28.2122 41.2451 27.7762 41.2451 27.3216C41.247 25.9583 41.7894 24.6513 42.7535 23.6873C43.7175 22.7233 45.0244 22.1808 46.3878 22.1789C46.6193 22.1896 46.8505 22.1531 47.0675 22.0719C47.2845 21.9906 47.4828 21.8662 47.6504 21.7061C47.818 21.5461 47.9514 21.3537 48.0425 21.1406C48.1336 20.9276 48.1806 20.6982 48.1806 20.4665C48.1806 20.2348 48.1336 20.0054 48.0425 19.7924C47.9514 19.5793 47.818 19.3869 47.6504 19.2269C47.4828 19.0668 47.2845 18.9424 47.0675 18.8611C46.8505 18.7799 46.6193 18.7435 46.3878 18.7541C45.0244 18.7522 43.7175 18.2098 42.7535 17.2457C41.7894 16.2817 41.247 14.9748 41.2451 13.6114C41.2451 13.1568 41.0645 12.7208 40.743 12.3993C40.4215 12.0778 39.9855 11.8972 39.5309 11.8972C39.0762 11.8972 38.6402 12.0778 38.3188 12.3993C37.9973 12.7208 37.8167 13.1568 37.8167 13.6114C37.8148 14.9741 37.2728 16.2805 36.3096 17.2445C35.3463 18.2084 34.0403 18.7512 32.6776 18.7541C32.4461 18.7435 32.2149 18.7799 31.9979 18.8611C31.7808 18.9424 31.5826 19.0668 31.415 19.2269C31.2474 19.3869 31.114 19.5793 31.0229 19.7924C30.9318 20.0054 30.8848 20.2348 30.8848 20.4665C30.8848 20.6982 30.9318 20.9276 31.0229 21.1406C31.114 21.3537 31.2474 21.5461 31.415 21.7061C31.5826 21.8662 31.7808 21.9906 31.9979 22.0719C32.2149 22.1531 32.4461 22.1896 32.6776 22.1789ZM39.5345 18.7469C40.0239 19.3981 40.6021 19.9775 41.2523 20.4683C40.6014 20.9568 40.023 21.5352 39.5345 22.1861C39.046 21.5352 38.4676 20.9568 37.8167 20.4683C38.4656 19.9773 39.0426 19.3978 39.5309 18.7469H39.5345Z" fill="#2C88E1"/>
<path fill-rule="evenodd" clip-rule="evenodd" d="M56.7867 32.4642C55.4134 32.4608 54.0957 31.9214 53.1142 30.9608C52.1327 30.0002 51.5651 28.6944 51.5322 27.3215C51.5322 26.8669 51.3516 26.4309 51.0301 26.1094C50.7086 25.7879 50.2726 25.6073 49.818 25.6073C49.3633 25.6073 48.9273 25.7879 48.6058 26.1094C48.2843 26.4309 48.1037 26.8669 48.1037 27.3215C48.1033 27.9979 47.9694 28.6676 47.7099 29.2923C47.4504 29.917 47.0703 30.4843 46.5913 30.962C46.1123 31.4396 45.5439 31.8181 44.9185 32.0759C44.2931 32.3337 43.6231 32.4656 42.9466 32.4642C42.492 32.4642 42.056 32.6448 41.7345 32.9663C41.413 33.2877 41.2324 33.7238 41.2324 34.1784C41.2324 34.633 41.413 35.0691 41.7345 35.3905C42.056 35.712 42.492 35.8926 42.9466 35.8926C44.3103 35.8936 45.6178 36.4357 46.582 37.3999C47.5462 38.3641 48.0883 39.6716 48.0893 41.0353C48.0893 41.4899 48.2699 41.9259 48.5914 42.2474C48.9129 42.5689 49.3489 42.7495 49.8035 42.7495C50.2582 42.7495 50.6942 42.5689 51.0157 42.2474C51.3371 41.9259 51.5177 41.4899 51.5177 41.0353C51.5498 39.6596 52.1192 38.3511 53.1039 37.3899C54.0887 36.4287 55.4106 35.8913 56.7867 35.8926C57.2414 35.8926 57.6774 35.712 57.9988 35.3905C58.3203 35.0691 58.5009 34.633 58.5009 34.1784C58.5009 33.7238 58.3203 33.2877 57.9988 32.9663C57.6774 32.6448 57.2414 32.4642 56.7867 32.4642ZM50.6841 34.9615C50.3783 35.2614 50.0938 35.5822 49.8324 35.9215C49.3412 35.2607 48.7578 34.6737 48.1001 34.1784C48.7578 33.6831 49.3412 33.0961 49.8324 32.4353C50.3387 33.0951 50.9338 33.6816 51.6007 34.1784C51.2779 34.4185 50.9716 34.6801 50.6841 34.9615Z" fill="#2C88E1"/>
<path fill-rule="evenodd" clip-rule="evenodd" d="M56.7858 56.5716H40.5963C38.7658 52.7966 37.8157 48.6555 37.8175 44.4601V41.0353C37.8165 39.6723 37.2749 38.3654 36.3115 37.4012C35.348 36.4371 34.0414 35.8946 32.6784 35.8926C31.3154 35.8917 30.0085 35.3501 29.0444 34.3866C28.0802 33.4232 27.5377 32.1166 27.5358 30.7536V6.64265C27.554 5.95608 27.4345 5.27282 27.1843 4.6332C26.9341 3.99357 26.5584 3.41054 26.0792 2.9185C25.6 2.42647 25.0271 2.0354 24.3944 1.76837C23.7616 1.50134 23.0817 1.36377 22.3949 1.36377C21.7081 1.36377 21.0283 1.50134 20.3955 1.76837C19.7627 2.0354 19.1898 2.42647 18.7107 2.9185C18.2315 3.41054 17.8557 3.99357 17.6056 4.6332C17.3554 5.27282 17.2359 5.95608 17.2541 6.64265V30.7536C17.2512 32.1163 16.7084 33.4223 15.7444 34.3856C14.7805 35.3488 13.4741 35.8907 12.1114 35.8926C10.7481 35.8946 9.44113 36.437 8.47711 37.401C7.51309 38.365 6.97066 39.672 6.96875 41.0353V44.4457C6.969 48.6048 7.79837 52.7222 9.40836 56.5571H1.71422C1.25958 56.5571 0.823562 56.7377 0.502083 57.0592C0.180605 57.3807 0 57.8167 0 58.2713C0 58.726 0.180605 59.162 0.502083 59.4835C0.823562 59.805 1.25958 59.9855 1.71422 59.9855H56.7858C57.2404 59.9855 57.6764 59.805 57.9979 59.4835C58.3194 59.162 58.5 58.726 58.5 58.2713C58.5 57.8167 58.3194 57.3807 57.9979 57.0592C57.6764 56.7377 57.2404 56.5571 56.7858 56.5571V56.5716ZM22.3931 4.92843C22.8478 4.92843 23.2838 5.10903 23.6053 5.43051C23.9267 5.75199 24.1073 6.18801 24.1073 6.64265V29.0358H20.6789V6.66069C20.6765 6.43406 20.7191 6.20921 20.8042 5.99915C20.8893 5.78908 21.0151 5.59797 21.1746 5.43688C21.334 5.27578 21.5238 5.14789 21.7329 5.06062C21.9421 4.97335 22.1665 4.92842 22.3931 4.92843ZM10.3972 41.0353C10.3972 40.5807 10.5778 40.1446 10.8993 39.8232C11.2208 39.5017 11.6568 39.3211 12.1114 39.3211C14.0863 39.3184 15.9998 38.6349 17.5296 37.3859C19.0593 36.1368 20.1117 34.3986 20.5093 32.4642H24.2806C24.6782 34.3986 25.7306 36.1368 27.2603 37.3859C28.79 38.6349 30.7036 39.3184 32.6784 39.3211C33.1325 39.322 33.5675 39.5031 33.8882 39.8244C34.2089 40.1458 34.389 40.5813 34.389 41.0353V42.7459H10.3972V41.0353ZM10.4658 46.1744H34.4396C34.6336 49.7515 35.4417 53.2685 36.8287 56.5716H32.0216C31.1582 54.7608 30.4881 52.8641 30.0223 50.9128C29.8831 50.509 29.5982 50.1717 29.2233 49.967C28.8485 49.7623 28.4107 49.7049 27.9957 49.806C27.5808 49.9072 27.2185 50.1596 26.9799 50.5138C26.7413 50.8681 26.6435 51.2987 26.7057 51.7212C27.105 53.3764 27.6323 54.9981 28.2828 56.5716H21.7399C20.8753 54.7609 20.2039 52.8642 19.737 50.9128C19.6221 50.4793 19.342 50.1081 18.9567 49.8788C18.5713 49.6495 18.1114 49.5802 17.6757 49.686C17.2399 49.7918 16.8629 50.0641 16.6255 50.4445C16.3882 50.825 16.3094 51.2833 16.406 51.7212C16.8086 53.3755 17.3358 54.9969 17.9831 56.5716H13.176C11.6009 53.3166 10.68 49.7841 10.4658 46.1744Z" fill="#2C88E1"/>
</g>
<defs>
<clipPath id="clip0_175_71">
<rect width="58.5" height="58.5" fill="white" transform="translate(0 1.5)"/>
</clipPath>
</defs>
</svg>
