<svg width="39" height="39" viewBox="0 0 39 39" fill="none" xmlns="http://www.w3.org/2000/svg">
<g clip-path="url(#clip0_172_766)">
<path fill-rule="evenodd" clip-rule="evenodd" d="M21.7851 13.7859C22.6935 13.7878 23.5642 14.1497 24.2064 14.7924C24.8486 15.435 25.2098 16.3059 25.2111 17.2144C25.2111 17.5175 25.3315 17.8081 25.5458 18.0225C25.7602 18.2368 26.0508 18.3572 26.3539 18.3572C26.657 18.3572 26.9477 18.2368 27.162 18.0225C27.3763 17.8081 27.4967 17.5175 27.4967 17.2144C27.498 16.3055 27.8596 15.4342 28.5023 14.7915C29.145 14.1488 30.0163 13.7872 30.9252 13.7859C31.0795 13.793 31.2337 13.7687 31.3783 13.7146C31.523 13.6604 31.6552 13.5774 31.7669 13.4707C31.8787 13.364 31.9676 13.2358 32.0283 13.0937C32.0891 12.9517 32.1204 12.7988 32.1204 12.6443C32.1204 12.4898 32.0891 12.3369 32.0283 12.1949C31.9676 12.0529 31.8787 11.9246 31.7669 11.8179C31.6552 11.7112 31.523 11.6283 31.3783 11.5741C31.2337 11.5199 31.0795 11.4956 30.9252 11.5027C30.0163 11.5014 29.145 11.1398 28.5023 10.4971C27.8596 9.85446 27.498 8.98316 27.4967 8.07427C27.4967 7.77118 27.3763 7.4805 27.162 7.26618C26.9477 7.05186 26.657 6.93146 26.3539 6.93146C26.0508 6.93146 25.7602 7.05186 25.5458 7.26618C25.3315 7.4805 25.2111 7.77118 25.2111 8.07427C25.2098 8.98274 24.8486 9.85368 24.2064 10.4963C23.5642 11.1389 22.6935 11.5008 21.7851 11.5027C21.6308 11.4956 21.4766 11.5199 21.3319 11.5741C21.1872 11.6283 21.055 11.7112 20.9433 11.8179C20.8316 11.9246 20.7427 12.0529 20.6819 12.1949C20.6212 12.3369 20.5898 12.4898 20.5898 12.6443C20.5898 12.7988 20.6212 12.9517 20.6819 13.0937C20.7427 13.2358 20.8316 13.364 20.9433 13.4707C21.055 13.5774 21.1872 13.6604 21.3319 13.7146C21.4766 13.7687 21.6308 13.793 21.7851 13.7859ZM26.3563 11.4979C26.6826 11.932 27.0681 12.3183 27.5015 12.6455C27.0676 12.9712 26.682 13.3568 26.3563 13.7907C26.0307 13.3568 25.6451 12.9712 25.2111 12.6455C25.6437 12.3182 26.0284 11.9319 26.3539 11.4979H26.3563Z" fill="#2C88E1"/>
<path fill-rule="evenodd" clip-rule="evenodd" d="M37.8578 20.6428C36.9423 20.6406 36.0638 20.281 35.4095 19.6406C34.7552 19.0002 34.3767 18.1297 34.3548 17.2144C34.3548 16.9113 34.2344 16.6206 34.0201 16.4063C33.8057 16.192 33.5151 16.0716 33.212 16.0716C32.9089 16.0716 32.6182 16.192 32.4039 16.4063C32.1896 16.6206 32.0692 16.9113 32.0692 17.2144C32.0688 17.6653 31.9796 18.1118 31.8066 18.5282C31.6336 18.9447 31.3802 19.3229 31.0609 19.6413C30.7416 19.9598 30.3626 20.2121 29.9457 20.384C29.5288 20.5558 29.082 20.6438 28.6311 20.6428C28.328 20.6428 28.0373 20.7632 27.823 20.9775C27.6087 21.1919 27.4883 21.4825 27.4883 21.7856C27.4883 22.0887 27.6087 22.3794 27.823 22.5937C28.0373 22.808 28.328 22.9284 28.6311 22.9284C29.5402 22.9291 30.4118 23.2905 31.0547 23.9333C31.6975 24.5761 32.0589 25.4478 32.0595 26.3569C32.0595 26.66 32.1799 26.9507 32.3943 27.165C32.6086 27.3793 32.8993 27.4997 33.2023 27.4997C33.5054 27.4997 33.7961 27.3793 34.0104 27.165C34.2248 26.9507 34.3452 26.66 34.3452 26.3569C34.3665 25.4397 34.7461 24.5674 35.4026 23.9266C36.0591 23.2859 36.9404 22.9276 37.8578 22.9284C38.1609 22.9284 38.4516 22.808 38.6659 22.5937C38.8802 22.3794 39.0006 22.0887 39.0006 21.7856C39.0006 21.4825 38.8802 21.1919 38.6659 20.9775C38.4516 20.7632 38.1609 20.6428 37.8578 20.6428ZM33.7894 22.3077C33.5856 22.5077 33.3958 22.7215 33.2216 22.9477C32.8941 22.5072 32.5052 22.1158 32.0668 21.7856C32.5052 21.4554 32.8941 21.0641 33.2216 20.6236C33.5591 21.0634 33.9558 21.4545 34.4005 21.7856C34.1852 21.9457 33.9811 22.1201 33.7894 22.3077Z" fill="#2C88E1"/>
<path fill-rule="evenodd" clip-rule="evenodd" d="M37.8572 36.7144H27.0642C25.8439 34.1977 25.2104 31.437 25.2117 28.6401V26.3569C25.211 25.4482 24.8499 24.5769 24.2076 23.9342C23.5653 23.2914 22.6943 22.9297 21.7856 22.9284C20.877 22.9278 20.0057 22.5667 19.3629 21.9244C18.7202 21.2821 18.3585 20.4111 18.3572 19.5024V3.42843C18.3693 2.97072 18.2896 2.51522 18.1229 2.0888C17.9561 1.66238 17.7056 1.27369 17.3861 0.945669C17.0667 0.617645 16.6848 0.356931 16.2629 0.178913C15.8411 0.000894807 15.3878 -0.0908203 14.9299 -0.0908203C14.4721 -0.0908203 14.0188 0.000894807 13.597 0.178913C13.1751 0.356931 12.7932 0.617645 12.4738 0.945669C12.1543 1.27369 11.9038 1.66238 11.737 2.0888C11.5703 2.51522 11.4906 2.97072 11.5027 3.42843V19.5024C11.5008 20.4109 11.1389 21.2815 10.4963 21.9237C9.85368 22.5659 8.98275 22.9272 8.07428 22.9284C7.16539 22.9297 6.29409 23.2913 5.65141 23.934C5.00873 24.5767 4.64711 25.448 4.64584 26.3569V28.6305C4.646 31.4032 5.19891 34.1481 6.27224 36.7047H1.14281C0.83972 36.7047 0.549041 36.8251 0.334722 37.0395C0.120403 37.2538 0 37.5445 0 37.8476C0 38.1507 0.120403 38.4413 0.334722 38.6556C0.549041 38.87 0.83972 38.9904 1.14281 38.9904H37.8572C38.1603 38.9904 38.451 38.87 38.6653 38.6556C38.8796 38.4413 39 38.1507 39 37.8476C39 37.5445 38.8796 37.2538 38.6653 37.0395C38.451 36.8251 38.1603 36.7047 37.8572 36.7047V36.7144ZM14.9287 2.28562C15.2318 2.28562 15.5225 2.40602 15.7368 2.62034C15.9512 2.83466 16.0716 3.12534 16.0716 3.42843V18.3572H13.7859V3.44046C13.7843 3.28938 13.8127 3.13948 13.8694 2.99943C13.9262 2.85939 14.0101 2.73198 14.1164 2.62458C14.2227 2.51719 14.3492 2.43193 14.4886 2.37375C14.6281 2.31556 14.7777 2.28561 14.9287 2.28562ZM6.93146 26.3569C6.93146 26.0538 7.05186 25.7631 7.26618 25.5488C7.4805 25.3345 7.77118 25.2141 8.07428 25.2141C9.39086 25.2122 10.6666 24.7566 11.6864 23.9239C12.7062 23.0912 13.4078 21.9324 13.6729 20.6428H16.187C16.4521 21.9324 17.1537 23.0912 18.1735 23.9239C19.1933 24.7566 20.469 25.2122 21.7856 25.2141C22.0883 25.2147 22.3784 25.3354 22.5922 25.5496C22.806 25.7639 22.926 26.0542 22.926 26.3569V27.4973H6.93146V26.3569ZM6.97717 29.7829H22.9597C23.0891 32.1677 23.6278 34.5124 24.5524 36.7144H21.3477C20.7721 35.5072 20.3254 34.2427 20.0149 32.9419C19.9221 32.6727 19.7321 32.4478 19.4822 32.3113C19.2323 32.1749 18.9405 32.1366 18.6638 32.204C18.3872 32.2714 18.1457 32.4397 17.9866 32.6759C17.8275 32.9121 17.7623 33.1991 17.8038 33.4808C18.07 34.5843 18.4215 35.6654 18.8552 36.7144H14.4933C13.9169 35.5073 13.4693 34.2428 13.158 32.9419C13.0814 32.6529 12.8947 32.4054 12.6378 32.2525C12.3809 32.0996 12.0743 32.0535 11.7838 32.124C11.4933 32.1945 11.2419 32.376 11.0837 32.6297C10.9255 32.8833 10.8729 33.1889 10.9373 33.4808C11.2057 34.5836 11.5572 35.6646 11.9887 36.7144H8.78402C7.7339 34.5444 7.12001 32.1894 6.97717 29.7829Z" fill="#2C88E1"/>
</g>
<defs>
<clipPath id="clip0_172_766">
<rect width="39" height="39" fill="white"/>
</clipPath>
</defs>
</svg>
